<?xml version="1.0" encoding="UTF-8"?>
<svg width="24px" height="24px" viewBox="0 0 24 24" version="1.1" xmlns="http://www.w3.org/2000/svg" xmlns:xlink="http://www.w3.org/1999/xlink">
    <!-- Generator: Sketch 51.3 (57544) - http://www.bohemiancoding.com/sketch -->
    <title>DKU_queued</title>
    <desc>Created with Sketch.</desc>
    <defs></defs>
    <g id="DKU_queued" stroke="none" stroke-width="1" fill="none" fill-rule="evenodd">
        <path d="M12,20 C7.581722,20 4,16.418278 4,12 C4,7.581722 7.581722,4 12,4 C16.418278,4 20,7.581722 20,12 C20,16.418278 16.418278,20 12,20 Z M12,17 C14.7614237,17 17,14.7614237 17,12 C17,9.23857625 14.7614237,7 12,7 C9.23857625,7 7,9.23857625 7,12 C7,14.7614237 9.23857625,17 12,17 Z" id="Combined-Shape" fill="#CCCCCC"></path>
        <path d="M6.34314575,17.6568542 L8.46446609,15.5355339 C9.36928813,16.4403559 10.6192881,17 12,17 C14.7614237,17 17,14.7614237 17,12 C17,9.23857625 14.7614237,7 12,7 L12,4 C16.418278,4 20,7.581722 20,12 C20,16.418278 16.418278,20 12,20 C9.790861,20 7.790861,19.1045695 6.34314575,17.6568542 Z" id="Combined-Shape" fill="#3B99FC"></path>
    </g>
</svg>