<svg width="32" height="32" viewBox="0 0 32 32" fill="none" xmlns="http://www.w3.org/2000/svg">
<g clip-path="url(#clip0)">
<rect width="32" height="32"/>
<path d="M1.07289 10.1301C1.1809 7.7487 2.72487 5.75563 4.99075 5.01489C6.72484 4.448 9.1457 3.72356 12.376 2.89381C16.4363 1.85086 19.9121 1.57204 22.3348 1.54784C24.6307 1.52491 26.5971 2.95341 27.3997 5.10462C28.2603 7.4111 29.3348 10.7734 30.086 14.791C30.6261 17.6792 30.8325 20.0151 30.879 21.8091C30.9503 24.5654 28.8466 26.6367 26.1364 27.1435L10.7882 30.0136C7.90613 30.5525 4.97953 29.2523 3.84382 26.5491C3.0074 24.5584 2.12913 22.032 1.61595 19.2851C0.994401 15.9582 0.961061 12.5958 1.07289 10.1301Z" fill="#CFEDEB"/>
<path fill-rule="evenodd" clip-rule="evenodd" d="M18.5538 14.8339C18.3613 14.758 18.1869 14.6321 18.0515 14.4615C16.8884 12.9955 15.0903 12.7365 13.6989 13.362C12.3714 13.9588 11.3666 15.3925 11.9082 17.6078C11.9833 17.9152 11.9347 18.2397 11.7729 18.5116L6.59312 27.212C6.25223 27.7845 5.5117 27.9724 4.93911 27.6315C4.36651 27.2906 4.17868 26.5501 4.51957 25.9775L9.45849 17.6816C8.90421 14.5654 10.4526 12.1756 12.7095 11.161C14.7767 10.2316 17.4044 10.4824 19.3007 12.2632L20.7338 11.6392C21.2149 11.4297 21.7763 11.5552 22.1224 11.9496C22.4685 12.344 22.52 12.9169 22.2499 13.3667L20.5903 16.13C20.5824 16.153 20.5716 16.1864 20.5594 16.2304C20.5208 16.369 20.4665 16.6158 20.4389 16.9785C20.3839 17.6999 20.4334 18.8998 20.9435 20.6381C22.0402 24.0659 21.9255 27.5258 20.8243 30.4501C20.5895 31.0737 19.8936 31.3889 19.2699 31.1541C18.6463 30.9192 18.3311 30.2233 18.566 29.5997C19.4677 27.205 19.5844 24.3 18.6411 21.3612C18.6381 21.3519 18.6353 21.3425 18.6325 21.3332C18.0445 19.3357 17.9532 17.8381 18.0326 16.7954C18.0722 16.275 18.154 15.8727 18.2346 15.583C18.2749 15.4384 18.3147 15.3225 18.3486 15.2345C18.3655 15.1905 18.3808 15.1536 18.394 15.1237C18.4005 15.1087 18.4065 15.0955 18.4119 15.084L18.4194 15.068L18.4228 15.061L18.4244 15.0577L18.4252 15.0562C18.4256 15.0554 18.426 15.0546 19.5079 15.5888L18.426 15.0546C18.4406 15.025 18.4565 14.9959 18.4735 14.9675L18.5538 14.8339Z" fill="#1E3E63"/>
<path d="M15.2986 17.4073C15.7384 17.3446 16.0442 16.9373 15.9815 16.4975C15.9189 16.0577 15.5116 15.7519 15.0718 15.8146C14.6319 15.8772 14.3262 16.2845 14.3888 16.7243C14.4515 17.1642 14.8588 17.4699 15.2986 17.4073Z" fill="#1E3E63"/>
<path d="M25.6445 8.31369C25.6445 7.94801 25.7908 7.65547 26.0102 7.43607C26.2296 7.21666 26.5221 7.07039 26.961 7.07039C27.3266 7.07039 27.6923 7.21666 27.9117 7.43607C28.1311 7.65547 28.2774 7.94801 28.2774 8.31369C28.2774 8.67936 28.1311 8.9719 27.9117 9.19131C27.6923 9.41071 27.3998 9.55698 26.961 9.55698C26.5953 9.55698 26.2296 9.41071 26.0102 9.19131C25.7908 8.9719 25.6445 8.67936 25.6445 8.31369ZM28.058 1.65841C28.058 1.87781 28.058 2.17036 28.058 2.53603C28.058 2.9017 28.058 3.34051 27.9848 3.77932C27.9848 4.21813 27.9117 4.65694 27.9117 5.09575C27.8386 5.53456 27.8386 5.90024 27.7654 6.26591C27.7654 6.26591 27.6923 6.33904 27.6192 6.33904C27.546 6.33904 27.4729 6.41218 27.3998 6.41218C27.3266 6.41218 27.2535 6.41218 27.1804 6.48532C27.1072 6.48532 27.0341 6.48532 26.961 6.48532C26.7416 6.48532 26.5221 6.41218 26.3027 6.33904C26.1565 6.26591 26.0102 6.11964 26.0102 5.90024C25.9371 5.68083 25.8639 5.38829 25.8639 4.94948C25.8639 4.51067 25.7908 4.07186 25.7908 3.63305C25.7908 3.12111 25.7177 2.6823 25.7177 2.17036C25.7177 1.65841 25.7177 1.29274 25.7177 0.927061C25.8639 0.853926 26.0833 0.780792 26.3027 0.707657C26.5221 0.634522 26.7416 0.634521 26.961 0.634521C27.3266 0.634521 27.6192 0.707656 27.7654 0.853926C27.9848 1.07333 28.058 1.29274 28.058 1.65841Z" fill="#1E3E63"/>
</g>
<defs>
<clipPath id="clip0">
<rect width="32" height="32"/>
</clipPath>
</defs>
</svg>
