<?xml version="1.0" encoding="utf-8"?>
<!-- Generator: Adobe Illustrator 19.1.0, SVG Export Plug-In . SVG Version: 6.00 Build 0)  -->
<svg version="1.1" id="design" xmlns="http://www.w3.org/2000/svg" xmlns:xlink="http://www.w3.org/1999/xlink" x="0px" y="0px"
	 viewBox="0 0 60 60" enable-background="new 0 0 60 60" xml:space="preserve">
<polygon id="XMLID_144_" fill="#BCBEC0" points="44.4,33 44.4,33.4 44.6,33.7 44.6,33.2 "/>
<polygon id="XMLID_143_" fill="#BCBEC0" points="44.6,33.7 44.4,33.4 44.4,33 44.6,33.2 44.6,33.1 44.3,32.8 44.3,33.4 44.6,33.7 
	"/>
<polygon id="XMLID_132_" fill="#BCBEC0" points="45.2,32.8 45.4,32.6 45,32.6 "/>
<polygon id="XMLID_130_" fill="#BCBEC0" points="44.9,32.5 44.6,32.1 44.6,32.2 44.8,32.6 44.9,32.6 45,32.6 "/>
<polygon id="XMLID_117_" fill="#BCBEC0" points="45.2,32.8 45,32.6 44.9,32.6 45.2,32.9 45.4,32.6 45.4,32.6 "/>
<g id="XMLID_80_">
	<g id="XMLID_160_">
		<polygon id="XMLID_162_" fill="#BCBEC0" points="35.3,39 35.5,36.8 34.3,39 		"/>
		<path id="XMLID_161_" fill="#BCBEC0" d="M35.8,31.9l-1.2-0.3l-0.2,0l0-0.1l-2-4.1l-2.1-0.4l-2-0.3l0,0L28,26.2l-1.5,0.1l-0.8,0.2
			l-2.2,2.7l1.3,3.4l0.1,0.2c0.6,0.1,3.3,0.3,3.4,0.4c0,0,0.1,0.1,0.3,2.1c0.1,0.8,0.2,2,0.1,2.1c0,0.2,0.7,2.3,1.2,3.6l1.9-0.4
			l1.8-2.9l0.1-2.5l0,0l1.7-2.6L35.8,31.9z"/>
	</g>
	<g id="XMLID_154_">
		<polygon id="XMLID_158_" fill="#BCBEC0" points="27,22.9 26.4,21.5 25.9,21.7 25.8,22.5 25.5,23.1 26.2,23.4 		"/>
		<path id="XMLID_155_" fill="#BCBEC0" d="M31.9,24l1.7,0.8l2.1-2.2L33,19.7l-0.9,0.2l0,0l-2-0.5l-2.2,2.1l0.4,0.9l-2.1,1.8
			l-1.1,0.8l0.6,1.2l0.6-0.2l1.4-1.3l1.3,1v0.3l0.6-0.4l-0.3-1l1.2,1.3l2.2,0.1l0.5-0.8l-1.8-0.1L31.9,24L31.9,24z M30.8,22.2
			l-2.3,0.5l0.9-0.9l0.2-0.8l0,0l1-0.6L30.8,22.2L30.8,22.2z"/>
	</g>
	<g id="XMLID_133_">
		<path id="XMLID_141_" fill="#BCBEC0" d="M51.9,35.7c-0.3,0.2-1.6,0.3-2.4,0.3l-3.4,2.1c-0.1,0.9-0.3,2.2-0.4,2.5
			c0.4-0.1,2-0.2,3.3-0.3l0,0l0,0l1.6,1.1l2.9-2.3C53,37.9,52.1,36,51.9,35.7z"/>
		<path id="XMLID_138_" fill="#BCBEC0" d="M53.2,34.6l-1.5-0.8c-0.4,0.1-1.3,0.2-1.7,0.2l1.6,0.9L53.2,34.6z"/>
		<polygon id="XMLID_136_" fill="#BCBEC0" points="47.5,34.6 48.3,34.1 48,33 48.1,33 48,32.8 47.8,33 47.9,33 46.7,34.2 		"/>
		<polygon id="XMLID_135_" fill="#BCBEC0" points="48.1,35.7 46.2,34.5 45,33.2 45,33.7 46.4,35.2 		"/>
		<polygon id="XMLID_134_" fill="#BCBEC0" points="48.9,33.6 48.4,34.7 49.3,35 		"/>
	</g>
	<path id="XMLID_131_" fill="#BCBEC0" d="M51.7,21.6c1-0.7,1.4-0.9,1.6-1c-0.9-0.2-5.3-0.9-7.7-1.2l-0.9-0.2l-5-0.9l-6.3,1.4l2.8,3
		l-2.4,2.5l-0.1,0.2l-0.7,1.1l-0.3,0.8l2,4l0.1,0l2.1-1.3l0.4-1.3l2.2,0.5l0,0l1.6,3.1l0.3-1.7l0,0l1.9-1.6l0,0.1l1.5,2.9l0.2,0.6
		L45,33h0.4l0.7-0.9l0.2-1.5l0-0.1l1.7-1.8l-0.5-2.4l0,0l2.1-2.2l-1.7-1.3l0.4-1.2l1.8,0.2l0,0l1.1,1.1l0.5,0.2L51.7,21.6L51.7,21.6
		z"/>
	<path id="XMLID_84_" fill="#BCBEC0" d="M21,33.1l-1-0.5l-2.6-1.4l-1.5,0.7l-0.2,0.7l0,0.1l-0.4,2.5l1.9,3l1.1,5.9l1.6,1l-0.5-1.7
		l0,0c0.8-1.6,0.9-1.6,0.9-1.6c0.3-0.3,1.5-2.1,2.4-3.4l1.1-2.9L21,33.1z"/>
	<path id="XMLID_81_" fill="#BCBEC0" d="M20.8,18l-1.5,0.6L15.8,19l-1,0.4l-1,0.4l0,0c-1.1-0.1-3.5-0.4-3.7-0.5
		c-0.3,0.1-2.3,1.3-3.6,2.1l0.2,0.8l3.3-0.6l0,0.1c0.2,1.4,0.2,2.1,0.1,2.2c-0.1,0.1-0.4,1.4-0.7,2.6l1.8,3.6l1.9,0.7l1.8,1.1
		l0.7,0.4l0.1-0.4l-0.8-1.3l-0.7-1l-1.3,0.5l-0.5-1.7l0,0l1.4-0.7l0,0l1,0.4l0.9,0.4l0.1-1.1l0,0l1.2-1.3l2.2-1.5l2.3-1.3L20.9,22
		h-1.8l-1.5,0.8l-1.2-1l2.8-1.3l1.1,0.5h1l0.5-0.9l-1.4-1l1.8-0.7l1.4,0.9l0,0l-0.2,2.2l0.7,0.2l0.6-0.9l0,0l2.9-0.7l1.6-2.1H20.8z"
		/>
</g>
<circle id="XMLID_660_" fill="#28B058" stroke="#FFFFFF" stroke-width="0.25" stroke-miterlimit="10" cx="28.6" cy="30.1" r="2.4"/>
<circle id="XMLID_305_" fill="#28B058" stroke="#FFFFFF" stroke-width="0.25" stroke-miterlimit="10" cx="31.3" cy="23" r="1.6"/>
<circle id="XMLID_918_" fill="#28B058" stroke="#FFFFFF" stroke-width="0.25" stroke-miterlimit="10" cx="42.5" cy="22.9" r="2.9"/>
<circle id="XMLID_920_" fill="#28B058" stroke="#FFFFFF" stroke-width="0.25" stroke-miterlimit="10" cx="19.8" cy="35.3" r="1.1"/>
<circle id="XMLID_307_" fill="#28B058" stroke="#FFFFFF" stroke-width="0.25" stroke-miterlimit="10" cx="50.8" cy="38" r="0.6"/>
<ellipse id="XMLID_982_" fill="#28B058" stroke="#FFFFFF" stroke-width="0.25" stroke-miterlimit="10" cx="15.2" cy="24.1" rx="1.4" ry="1.4"/>
<g id="BG">
</g>
</svg>
