<?xml version="1.0" encoding="utf-8"?>
<!-- Generator: Adobe Illustrator 19.1.0, SVG Export Plug-In . SVG Version: 6.00 Build 0)  -->
<svg version="1.1" id="design" xmlns="http://www.w3.org/2000/svg" xmlns:xlink="http://www.w3.org/1999/xlink" x="0px" y="0px"
	 viewBox="0 0 60 60" enable-background="new 0 0 60 60" xml:space="preserve">
<g>
	<rect id="XMLID_74_" x="12" y="12" opacity="0.8" fill="#28B058" width="7.2" height="7.2"/>
	<rect id="XMLID_153_" x="12" y="20.4" opacity="0.8" fill="#28B058" width="7.2" height="6"/>
	<rect id="XMLID_163_" x="12" y="27.6" opacity="0.8" fill="#28B058" width="7.2" height="6"/>
	<rect id="XMLID_165_" x="12" y="34.8" opacity="0.8" fill="#28B058" width="7.2" height="6"/>
	<rect id="XMLID_168_" x="12" y="42" opacity="0.8" fill="#28B058" width="7.2" height="6"/>
	<rect id="XMLID_181_" x="20.4" y="12" opacity="0.8" fill="#28B058" width="13.2" height="7.2"/>
	<rect id="XMLID_189_" x="34.8" y="12" opacity="0.8" fill="#28B058" width="13.2" height="7.2"/>
	<g id="XMLID_1553_">
		<rect id="XMLID_180_" x="20.4" y="20.4" opacity="0.3" fill="#28B058" width="13.2" height="6"/>
		<rect id="XMLID_179_" x="20.4" y="27.6" opacity="0.3" fill="#28B058" width="13.2" height="6"/>
		<rect id="XMLID_177_" x="20.4" y="34.8" opacity="0.3" fill="#28B058" width="13.2" height="6"/>
		<rect id="XMLID_176_" x="20.4" y="42" opacity="0.3" fill="#28B058" width="13.2" height="6"/>
		<rect id="XMLID_185_" x="34.8" y="20.4" opacity="0.3" fill="#28B058" width="13.2" height="6"/>
		<rect id="XMLID_184_" x="34.8" y="27.6" opacity="0.3" fill="#28B058" width="13.2" height="6"/>
		<rect id="XMLID_183_" x="34.8" y="34.8" opacity="0.3" fill="#28B058" width="13.2" height="6"/>
		<rect id="XMLID_182_" x="34.8" y="42" opacity="0.3" fill="#28B058" width="13.2" height="6"/>
	</g>
</g>
<g id="BG">
</g>
</svg>
