<?xml version="1.0" encoding="utf-8"?>
<!-- Generator: Adobe Illustrator 18.1.1, SVG Export Plug-In . SVG Version: 6.00 Build 0)  -->
<svg version="1.1" id="design" xmlns="http://www.w3.org/2000/svg" xmlns:xlink="http://www.w3.org/1999/xlink" x="0px" y="0px"
	 viewBox="0 0 60 60" enable-background="new 0 0 60 60" xml:space="preserve">
<g id="XMLID_118_">
	<g id="XMLID_119_">
		<path id="XMLID_126_" fill="#26AEDB" d="M30,44.9c8.2,0,14.9-6.7,14.9-14.9c0-8.2-6.7-14.9-14.9-14.9S15.1,21.8,15.1,30
			C15.1,38.2,21.8,44.9,30,44.9z M30,16.2c1.5,0,2.9,0.2,4.2,0.7c-0.4,0.5-0.4-0.2-0.6,0.1c-0.1,0.3-0.4,0.4-0.5,0.4
			c-0.2,0.3-0.3,0.5-0.5,0.8c-0.2,0-0.3,0.1-0.5,0.1c-0.1,0-0.1,0-0.2,0.1c-0.2,0.2-0.4,0.4-0.5,0.6c-0.2,0.2-0.3,0.4-0.5,0.6
			c0,0,0,0-0.1,0.1c-0.1,0-0.2-0.1-0.3-0.2c-0.1-0.1-0.3-0.3-0.3-0.5c-0.1-0.3-0.2-0.5-0.2-0.8c0-0.1,0-0.2,0-0.2
			c0.1-0.2,0.2-0.5,0.3-0.7c0-0.1,0-0.1,0-0.2c-0.2,0-0.3,0-0.5,0c0,0,0,0.1,0,0.1c0.1,0.1,0.1,0.2,0.2,0.4c0,0,0,0.1,0,0.1
			c-0.2,0.1-0.3,0.2-0.4,0.3c-0.1,0.1-0.3,0.3-0.4,0.4c-0.1-0.1-0.2-0.2-0.3-0.3c-0.2-0.1-0.1-0.1-0.4-0.1c-0.2,0-0.3,0-0.5,0.1
			c-0.1,0-0.2,0-0.3,0c-0.1,0-0.1,0-0.2-0.1c0,0,0,0,0,0c0,0-0.1-0.1-0.1,0c0,0-0.1,0-0.1,0.1c-0.1,0-0.1,0.1-0.2,0.2
			c-0.1,0.1-0.2,0.1-0.2,0.2c-0.1,0.1-0.3,0.2-0.4,0.3c0,0-0.1,0.1-0.1,0.1c0,0.1,0,0.2,0,0.3c0,0.1,0,0.2,0,0.4
			c0.1,0.2,0.2,0.2,0.3,0.2c0.2-0.1,0.4-0.2,0.5-0.3c0.1-0.1,0.2-0.2,0.2-0.3c0,0,0,0,0-0.1c0,0,0.1-0.1,0.1,0c0,0,0.1,0,0.1,0.1
			c0.1,0,0.2,0,0.3,0c0.1,0,0.1-0.1,0.1-0.1c0,0,0.1-0.1,0.1-0.1c0.1-0.1,0.1-0.1,0.2-0.1c0.2-0.1,0.3,0,0.4,0.1
			c0.1,0.1,0.2,0.2,0.3,0.3c0,0,0.1,0.1,0.1,0.1c0.1,0.1,0.1,0.1,0.1,0.2c0,0.1-0.1,0.2-0.1,0.3c0,0.1-0.1,0.1-0.1,0.2
			c0,0,0,0.1,0,0.1c0,0,0,0.1,0.1,0.1c0.1,0,0.1,0,0.2,0c0,0,0.1,0,0.1,0c0,0.3-0.1,0.6-0.2,0.8c0,0-0.1,0.1-0.1,0.1
			c-0.1,0.1-0.2,0.1-0.4,0.1c-0.1,0-0.2-0.1-0.3-0.1c-0.2-0.1-0.3-0.1-0.5,0c0,0-0.1,0.1-0.1,0.2c0,0.1-0.1,0.1-0.1,0.1
			C27.4,21,27.1,21,26.8,21c0,0-0.1,0-0.1,0c-0.2,0.1-0.4,0.1-0.6,0.2c-0.1,0-0.1,0.1-0.2,0.1c-0.1,0.1-0.3,0.1-0.4,0.2
			c-0.1,0-0.3,0.1-0.4,0c-0.4,0.4-0.9,0.6-1.5,0.8c0,0.2-0.1,0.4-0.1,0.6c0,0.2-0.1,0.5-0.1,0.7c0,0.1,0,0.1-0.1,0.1
			c-0.1,0-0.1,0-0.2-0.1c0-0.1-0.1-0.1-0.1-0.2c-0.1-0.2-0.1-0.3-0.1-0.5c0-0.2-0.2-0.4-0.4-0.5c-0.3-0.1-0.6-0.2-0.9-0.1
			c-0.5,0.1-0.9,0.3-1.2,0.7c-0.3,0.3-0.3,0.3-0.4,0.7c0,0.1,0,0.3,0,0.5c0,0.2,0.1,0.2,0.3,0.3c0.1,0,0.2,0,0.2,0
			c0.1,0,0.3-0.1,0.4-0.1c0.1,0,0.1,0.1,0.2,0.1c0.1,0.1,0.1,0.2,0,0.2c0,0.1-0.1,0.1-0.1,0.2c-0.1,0.1-0.3,0.2-0.3,0.2
			c-0.1,0.1-0.1,0.2,0,0.4c0,0,0.1,0,0.1,0.1c0,0,0.1,0,0.1,0.1c0,0.1,0,0.2,0,0.3c0,0.2,0,0.4,0,0.6c0,0.2,0.1,0.4,0.3,0.5
			c0.1,0.1,0.2,0.2,0.3,0.2c0.1,0,0.1,0.1,0.2,0.1c0.2,0.1,0.4,0,0.6-0.2c0.1-0.1,0.1-0.2,0.2-0.2c0.1-0.2,0.2-0.2,0.4-0.2
			c0.1,0,0.2,0.1,0.2,0.1c0.1,0.1,0.2,0.1,0.3,0.2c0.1,0.1,0.3,0.1,0.4,0.2c0,0,0.1,0,0.2,0.1c0.4,0.1,0.7,0.3,1,0.6
			c0.1,0.1,0.1,0.1,0.2,0.1c0.4,0.1,0.7,0.3,1,0.6c0.4,0.3,0.7,0.7,0.8,1.2c0,0.1,0.1,0.2,0.2,0.3c0.1,0.1,0.1,0.2,0.2,0.3
			c0.1,0.1,0.1,0.3,0.2,0.4c0,0,0,0.1,0.1,0.1c0.1,0,0.1,0,0.2,0c0.4,0.1,0.8,0.2,1.2,0.5c0.2,0.1,0.3,0.3,0.5,0.4
			c0,0,0.1,0.1,0.1,0.2c0,0.6-0.2,1-0.7,1.3c-0.1,0-0.1,0.1-0.1,0.2c-0.1,0.3-0.2,0.7-0.4,1c0,0.1-0.1,0.1-0.1,0.2
			c-0.2,0.2-0.3,0.5-0.5,0.7c-0.1,0.1-0.1,0.1-0.2,0.2c-0.1,0-0.1,0.1-0.2,0.1c-0.2,0.1-0.5,0.2-0.7,0.2c-0.1,0-0.1,0-0.2,0.1
			c-0.2,0.2-0.3,0.4-0.5,0.6c0,0,0,0-0.1,0.1c-0.2,0.3-0.4,0.6-0.5,0.8c0,0.1-0.1,0.1-0.2,0.2c-0.3,0.2-0.5,0.4-0.8,0.5
			c-0.1,0.1-0.1,0.1-0.2,0.2c-0.1,0.1-0.3,0.3-0.4,0.4c0,0-0.1,0.1-0.1,0.1c-0.1,0.3-0.2,0.5-0.4,0.8c0,0.1,0,0.1,0,0.2
			c0.1,0.4,0.2,0.9,0.2,1.3c0,0.1,0,0.1,0,0.2c-0.1,0-0.1,0-0.2,0c-0.2-0.1-0.4-0.2-0.5-0.3c-0.3-0.3-0.6-0.7-0.8-1.1
			c0,0,0-0.1,0-0.1c-0.1-0.3-0.1-0.7-0.1-1c0,0,0-0.1,0-0.1c-0.1-0.1-0.1-0.2-0.1-0.3c0-0.2,0-0.5,0-0.7c0-0.3,0.1-0.6,0.1-0.8
			c0,0,0-0.1,0-0.1c-0.1-0.1-0.1-0.2-0.1-0.3c0-0.2,0-0.4,0.1-0.6c0-0.1,0-0.2,0-0.2c0-0.3,0.1-0.5,0.1-0.8c0-0.1,0-0.2,0-0.3
			c0,0,0,0-0.1,0c-0.1-0.1-0.2-0.3-0.3-0.4c0-0.1,0-0.3,0-0.4c0-0.1,0-0.2,0.1-0.3c0,0-0.1-0.1-0.1-0.1c-0.2-0.2-0.4-0.3-0.6-0.5
			c-0.2-0.2-0.3-0.4-0.5-0.6c-0.1-0.1-0.1-0.2-0.2-0.3c-0.1-0.2-0.1-0.3-0.1-0.5c0,0,0-0.1,0-0.1c-0.1-0.3-0.1-0.6-0.1-0.9
			c0-0.2,0.1-0.4,0.2-0.6c0.1-0.1,0.1-0.2,0.2-0.3c0.1-0.2,0.3-0.4,0.4-0.5c0.1-0.2,0.2-0.4,0.2-0.6c0-0.1,0-0.2,0-0.3
			c0-0.2-0.1-0.3-0.2-0.4c-0.1-0.1-0.3-0.2-0.4-0.3c-0.1-0.1-0.1-0.1-0.1-0.2c0-0.2-0.1-0.4-0.1-0.6c0-0.1,0-0.1-0.1-0.2
			C20.2,26.1,20.1,26,20,26c0,0-0.1-0.1-0.1-0.1c0-0.2,0.1-0.4,0.1-0.5c0,0-0.1,0-0.1-0.1c-0.2-0.1-0.4-0.2-0.6-0.4
			c-0.1-0.1-0.2-0.2-0.3-0.3c-0.1-0.2-0.2-0.3-0.1-0.5c0-0.1,0-0.3,0.1-0.4c0-0.1,0-0.2,0-0.3c0,0,0,0,0,0c0,0,0.1-0.2-0.3-0.7
			c0,0-0.1-0.1-0.1-0.1C20.9,18.7,25.2,16.2,30,16.2z M37.1,41.8c0.3-0.3,0.5-0.7,0.3-1c-0.1-0.1-0.1-0.2-0.1-0.4
			c0-0.1,0.1-0.2,0.1-0.2c0.1-0.2,0.2-0.5,0.3-0.7c0.1-0.2,0.2-0.5,0.3-0.7c0.1-0.2,0.1-0.3,0-0.5c0-0.2-0.1-0.4-0.1-0.6
			c0-0.2,0-0.4,0-0.6c0.1-0.3,0.3-0.7,0.6-0.9c0.1-0.1,0.2-0.2,0.2-0.3c0.1-0.1,0.2-0.2,0.2-0.4c0.1-0.2,0.1-0.4,0.1-0.6
			c0-0.2-0.1-0.3-0.1-0.4c0-0.1-0.1-0.2-0.1-0.4c-0.1-0.2-0.1-0.4,0-0.6c0-0.1,0.1-0.3,0.1-0.4c0-0.1,0.1-0.3,0.1-0.4
			c0.1-0.2,0.1-0.3,0.1-0.5c0-0.1,0-0.2-0.1-0.4c0-0.1-0.1-0.2-0.2-0.1c0,0-0.1,0-0.1,0.1c-0.1,0.1-0.2,0-0.3-0.1
			c-0.1-0.1-0.1-0.1-0.2-0.1c-0.1,0-0.2,0-0.2-0.1c-0.3,0-0.5,0-0.8,0c-0.2,0-0.4,0-0.6,0c-0.1,0-0.1,0-0.2,0
			c-0.2,0-0.3-0.1-0.4-0.2c-0.3-0.1-0.5-0.3-0.7-0.5c-0.4-0.3-0.7-0.6-1-0.9c0,0-0.1-0.1-0.1-0.2c0-0.1,0-0.1,0-0.2
			c0-0.3,0-0.7,0.1-1c0.1-0.4,0.2-0.7,0.3-1c0.1-0.2,0.1-0.4,0.1-0.6c0-0.1,0-0.2-0.1-0.2c0-0.1,0-0.1,0-0.2c0-0.1,0.1-0.2,0.2-0.3
			c0.2-0.3,0.5-0.6,0.9-0.7c0.1,0,0.1-0.1,0.2-0.1c0.1-0.2,0.3-0.3,0.4-0.5c0-0.1,0.1-0.1,0.2-0.1c0.2-0.1,0.4-0.1,0.7-0.2
			c0.2-0.1,0.4-0.1,0.6-0.1c0.4,0,0.7,0,1.1,0.2c0.1,0,0.1,0,0.2,0c0.2,0,0.4,0,0.6,0c0.2,0,0.4,0.1,0.5,0.2
			c0.3,0.2,0.6,0.4,0.9,0.7c0.2,0.1,0.2,0.1,0.4,0.1c0.3,0,0.6,0,0.9,0.1c0,0,0,0,0,0c0,0,0-0.1,0-0.1c0-0.1-0.1-0.3-0.1-0.4
			c0-0.1-0.1-0.2-0.2-0.3c-0.1-0.2-0.3-0.3-0.5-0.3c-0.1,0-0.1,0-0.2,0c-0.2,0-0.3-0.1-0.3-0.3c0-0.1,0-0.2-0.1-0.2c0,0,0-0.1,0-0.1
			c0,0,0,0,0,0c0,0-0.1,0.1-0.1,0.1c0,0-0.1,0.1-0.1,0.1c-0.1,0.1-0.2,0.1-0.3,0c0,0,0-0.1,0-0.1c0,0,0-0.1,0-0.1
			c0-0.1,0-0.1-0.1-0.2c-0.1-0.1-0.1-0.1-0.2,0c0,0,0,0,0,0.1c0,0-0.1,0.1-0.1,0.1c-0.1,0.1-0.2,0.1-0.3,0c0,0,0,0-0.1,0
			c-0.1,0-0.1-0.1-0.1-0.2c0-0.1,0-0.2,0-0.3c0-0.1,0-0.1,0-0.2c0,0-0.1-0.1-0.1,0c0,0-0.1,0.1-0.1,0.1c0,0-0.1,0-0.1-0.1
			c-0.2-0.1-0.4-0.2-0.6-0.3c-0.1,0-0.1-0.1-0.2-0.1c-0.1,0.3-0.1,0.7-0.2,1c0,0-0.1,0-0.1,0c-0.2,0-0.3,0.1-0.5,0.1
			c-0.3,0.1-0.5,0-0.7-0.1c-0.2-0.1-0.3-0.3-0.4-0.4c-0.1-0.2-0.2-0.4-0.4-0.6c0,0,0-0.1,0-0.1c0.1-0.1,0.1-0.1,0.2-0.1
			c0.3-0.2,0.6-0.3,0.9-0.2c0,0,0.1,0,0.1,0c0,0,0,0,0.1,0c0.1-0.1,0.3-0.1,0.4-0.2c0.1-0.1,0.2-0.2,0.3-0.4c0,0,0.1-0.1,0.1-0.2
			c0-0.1-0.1-0.2-0.1-0.3c0-0.1,0-0.2,0-0.2c0-0.1,0-0.2,0-0.3c0,0,0-0.1,0-0.1c-0.2,0-0.3-0.1-0.5-0.1c-0.1,0-0.1,0-0.2-0.1
			c0-0.1-0.1-0.2-0.2-0.3c0-0.1-0.1-0.1-0.2-0.1c-0.1,0-0.2,0-0.3,0c-0.1,0-0.1,0-0.2-0.1c-0.1-0.1-0.1-0.2-0.2-0.3
			c0-0.1-0.1-0.3-0.1-0.4c0-0.2,0-0.4,0-0.6c0,0,0.1,0,0.1,0c0,0,0.1,0,0.1,0c0,0,0.1,0,0.1,0c0,0,0.1,0,0.1,0c0,0,0.1,0,0.1,0
			c0,0,0.3,0,0.4-0.3c0,0,0-0.1,0-0.1c3.8,2.5,6.4,6.7,6.4,11.6C43.8,35,41.1,39.4,37.1,41.8z"/>
	</g>
</g>
<g id="BG">
</g>
</svg>
