<?xml version="1.0" encoding="utf-8"?>
<!-- Generator: Adobe Illustrator 18.1.1, SVG Export Plug-In . SVG Version: 6.00 Build 0)  -->
<svg version="1.1" id="design" xmlns="http://www.w3.org/2000/svg" xmlns:xlink="http://www.w3.org/1999/xlink" x="0px" y="0px"
	 viewBox="0 0 60 60" enable-background="new 0 0 60 60" xml:space="preserve">
<g>
	<path id="XMLID_1299_" opacity="0.6" fill="#26AEDB" d="M50.5,27.3l-8.7,1.6c0,0.2,0,0.5,0,0.7c0,2-0.5,3.9-1.4,5.6
		c-1.3,2.4-3.4,4.2-5.9,5.3c-0.6,0.3-1.3,0.5-2,0.6l1.2,9.3c1.4-0.2,2.7-0.6,3.9-1.1c1-0.4,1.9-0.9,2.8-1.4c3.1-1.8,5.7-4.4,7.4-7.4
		C50.1,36.6,51.1,31.9,50.5,27.3z"/>
	<path id="XMLID_1300_" opacity="0.3" fill="#26AEDB" d="M30.4,41.3c-0.1,0-0.2,0-0.3,0c-1.5,0-3-0.3-4.4-0.9
		c-1.9-0.7-3.5-2-4.8-3.6L15,40.5l-2,1.3c4.2,6.1,11.2,9.4,18.5,8.9L30.4,41.3z"/>
	<path id="XMLID_1298_" opacity="0.9" fill="#26AEDB" d="M49.2,22.5c-1.7-4.4-4.8-8-8.9-10.4c-0.7-0.4-1.3-0.7-2.1-1
		C35.6,10,32.8,9.4,30,9.4c-2.5,0-5.1,0.5-7.5,1.4c-5.1,2-9.2,5.9-11.4,10.9c-2.2,5.1-2.3,10.7-0.3,15.8c0.3,0.8,0.7,1.5,1.1,2.4
		l7.8-4.8c-0.9-1.7-1.4-3.6-1.4-5.5c0-6.5,5.3-11.7,11.7-11.7c4.4,0,8.3,2.4,10.3,6.1c0.5,0.9,0.8,1.8,1.1,2.8l8.6-1.6
		C49.8,24.2,49.6,23.3,49.2,22.5z"/>
</g>
<g id="BG">
</g>
</svg>
