<svg id="design" xmlns="http://www.w3.org/2000/svg" viewBox="0 0 60 60"><defs><style>.cls-1{fill:#bcbec0;}.cls-2{fill:none;stroke:#fff;}.cls-2,.cls-3{stroke-miterlimit:10;}.cls-3{fill:#28b058;fill-opacity:0.5;stroke:#28b058;opacity:0.8;}</style></defs><title>Chart_Type_Icons_Polygon_Map_polygon_map</title><g id="_Groupe_" data-name="&lt;Groupe&gt;"><g id="_Groupe_2" data-name="&lt;Groupe&gt;"><polygon id="_Tracé_" data-name="&lt;Tracé&gt;" class="cls-1" points="31.55 40.85 31.68 38.96 30.74 40.89 31.55 40.85"/><path id="_Tracé_2" data-name="&lt;Tracé&gt;" class="cls-1" d="M32,34.85l-1-.29-.18,0,0-.07L29,31.09l-1.78-.3-1.65-.22v0l-.25-.5L24,30.17l-.66.17-1.85,2.27,1.06,2.86.06.15a29.23,29.23,0,0,1,2.9.35s.12.08.27,1.77a16.66,16.66,0,0,1,.1,1.79c0,.14.61,1.95,1,3.09l1.57-.38L30,39.74l.1-2.07h0l1.43-2.19Z"/></g><g id="_Groupe_3" data-name="&lt;Groupe&gt;"><polygon id="_Tracé_3" data-name="&lt;Tracé&gt;" class="cls-1" points="24.55 27.27 24 26.08 23.61 26.19 23.51 26.87 23.27 27.41 23.86 27.66 24.55 27.27"/><path id="_Tracé_transparent_" data-name="&lt;Tracé transparent&gt;" class="cls-1" d="M28.71,28.14l1.41.68,1.77-1.87-2.28-2.45-.78.17h0l-1.65-.39L25.29,26l.34.79-1.8,1.55-.91.72.48,1.05L23.9,30l1.26-1.11,1.22.87V30l.46-.38-.25-.87,1,1.11,1.82.1.41-.64-1.54-.13.41-1.1Zm-1-1.54-2,.46.72-.76.16-.66h0l.88-.53.21,1.49Z"/></g><g id="_Groupe_4" data-name="&lt;Groupe&gt;"><path id="_Tracé_4" data-name="&lt;Tracé&gt;" class="cls-1" d="M45.62,38.09a9,9,0,0,1-2.06.25l-2.87,1.74c-.11.75-.28,1.83-.31,2.13a17.81,17.81,0,0,1,2.8-.23h0l1.37,1L47,41C46.53,39.93,45.78,38.3,45.62,38.09Z"/><path id="_Tracé_5" data-name="&lt;Tracé&gt;" class="cls-1" d="M46.67,37.15l-1.23-.68c-.35,0-1.14.15-1.45.2l1.37.77Z"/><polygon id="_Tracé_6" data-name="&lt;Tracé&gt;" class="cls-1" points="41.9 37.11 42.52 36.53 42.3 35.47 42.35 35.47 42.31 35.26 42.13 35.47 42.2 35.47 41.22 36.67 41.9 37.11"/><polygon id="_Tracé_7" data-name="&lt;Tracé&gt;" class="cls-1" points="42.34 38.02 40.63 37.04 39.44 35.95 39.44 36.33 40.77 37.62 42.34 38.02"/><polygon id="_Tracé_8" data-name="&lt;Tracé&gt;" class="cls-1" points="43.09 36.32 42.6 37.23 43.4 37.46 43.09 36.32"/></g><path id="_Tracé_9" data-name="&lt;Tracé&gt;" class="cls-1" d="M45.4,26.15c.81-.56,1.18-.79,1.35-.88-.77-.14-4.48-.73-6.52-1.05l-.79-.15-4.24-.79-5.35,1.16,2.33,2.5-2,2.12-.08.21-.61,1-.26.71,1.65,3.42h.07l1.82-1.14.35-1.06,1.84.46v0l1.32,2.64.27-1.46h0l1.58-1.32,0,.05L39.44,35l.19.37.12.09h.31l.57-.57.15-1.23h0l1.46-1.51-.4-2,0,0,1.74-1.89-1.47-1.12.37-1,1.54.16h0l.94.91.43.19-.1-1.27Z"/><path id="_Tracé_10" data-name="&lt;Tracé&gt;" class="cls-1" d="M19.46,35.9l-.8-.43-2.23-1.18-1.3.58-.19.6,0,.07-.3,2.08,1.63,2.52.93,5,1.35.86-.46-1.47v0c.69-1.35.75-1.39.79-1.37.22-.25,1.3-1.82,2-2.87l1-2.43Z"/><path id="_Tracé_11" data-name="&lt;Tracé&gt;" class="cls-1" d="M19.26,22.78,18,23.47l-3,.39-.81.35-.88.39h0a19.31,19.31,0,0,1-3.13-.44c-.26.09-1.94,1.11-3.08,1.8l.13.66L10,26.14v0c.17,1.17.19,1.79.07,1.83a13.32,13.32,0,0,0-.61,2.17l1.56,3,1.61.63,1.56.95.61.37.11-.32-.71-1.11-.56-.87-1.1.45-.42-1.42,0,0,1.2-.6h0l.82.36L15,32l0-.94h0l1-1.09L18,28.72l1.94-1.26-.56-1.37H17.83l-1.25.9-1-.76L18,25.05l.9.35h.8l.45-.68L18.95,24l1.49-.59,1.18.77v0L21.47,26l.57.13.53-.73h0L25,24.67l1.37-1.89Z"/></g><polygon id="_Tracé_12" data-name="&lt;Tracé&gt;" class="cls-2" points="45.8 37.4 40.8 37.79 37.97 33.66 40.13 29.14 45.12 28.75 47.96 32.88 45.8 37.4"/><polygon id="_Tracé_13" data-name="&lt;Tracé&gt;" class="cls-2" points="52.29 23.83 47.29 24.22 44.46 20.09 46.62 15.57 51.62 15.18 54.45 19.31 52.29 23.83"/><polygon id="_Tracé_14" data-name="&lt;Tracé&gt;" class="cls-2" points="52.96 32.5 47.96 32.89 45.12 28.76 47.28 24.24 52.28 23.85 55.12 27.98 52.96 32.5"/><polygon id="_Tracé_15" data-name="&lt;Tracé&gt;" class="cls-2" points="45.13 28.75 40.14 29.14 37.3 25 39.46 20.48 44.46 20.09 47.29 24.22 45.13 28.75"/><polygon class="cls-3" points="33.82 32.42 51.38 28.36 48.36 14.95 35.75 20.8 33.82 32.42"/></svg>