<?xml version="1.0" encoding="utf-8"?>
<!-- Generator: Adobe Illustrator 18.1.1, SVG Export Plug-In . SVG Version: 6.00 Build 0)  -->
<svg version="1.1" id="design" xmlns="http://www.w3.org/2000/svg" xmlns:xlink="http://www.w3.org/1999/xlink" x="0px" y="0px"
	 viewBox="0 0 60 60" enable-background="new 0 0 60 60" xml:space="preserve">
<g>
	<rect id="XMLID_1162_" x="12" y="12" opacity="0.8" fill="#26AEDB" width="7.2" height="7.2"/>
	<rect id="XMLID_1161_" x="12" y="20.4" opacity="0.8" fill="#26AEDB" width="7.2" height="6"/>
	<rect id="XMLID_1160_" x="12" y="27.6" opacity="0.8" fill="#26AEDB" width="7.2" height="6"/>
	<rect id="XMLID_1159_" x="12" y="34.8" opacity="0.8" fill="#26AEDB" width="7.2" height="6"/>
	<rect id="XMLID_1158_" x="12" y="42" opacity="0.8" fill="#26AEDB" width="7.2" height="6"/>
	<rect id="XMLID_1157_" x="20.4" y="12" opacity="0.8" fill="#26AEDB" width="13.2" height="7.2"/>
	<rect id="XMLID_1156_" x="34.8" y="12" opacity="0.8" fill="#26AEDB" width="13.2" height="7.2"/>
	<rect id="XMLID_1155_" x="20.4" y="20.4" opacity="0.5" fill="#26AEDB" width="13.2" height="6"/>
	<rect id="XMLID_1089_" x="20.4" y="27.6" opacity="0.7" fill="#26AEDB" width="13.2" height="6"/>
	<rect id="XMLID_1088_" x="20.4" y="34.8" opacity="0.4" fill="#26AEDB" width="13.2" height="6"/>
	<rect id="XMLID_783_" x="20.4" y="42" opacity="0.2" fill="#26AEDB" width="13.2" height="6"/>
	<rect id="XMLID_782_" x="34.8" y="20.4" opacity="0.8" fill="#26AEDB" width="13.2" height="6"/>
	<rect id="XMLID_781_" x="34.8" y="27.6" fill="#26AEDB" width="13.2" height="6"/>
	<rect id="XMLID_780_" x="34.8" y="34.8" opacity="0.6" fill="#26AEDB" width="13.2" height="6"/>
	<rect id="XMLID_779_" x="34.8" y="42" opacity="0.3" fill="#26AEDB" width="13.2" height="6"/>
</g>
<g id="BG">
</g>
</svg>
