<?xml version="1.0" encoding="utf-8"?>
<!-- Generator: Adobe Illustrator 21.0.2, SVG Export Plug-In . SVG Version: 6.00 Build 0)  -->
<svg version="1.1" xmlns="http://www.w3.org/2000/svg" xmlns:xlink="http://www.w3.org/1999/xlink" x="0px" y="0px"
	 viewBox="0 0 60 60" enable-background="new 0 0 60 60" xml:space="preserve">
<g id="design">
	<g id="BG">
	</g>
	<g>
		<polygon fill="#BCBEC0" points="35.3,39 35.5,36.8 34.3,39 		"/>
		<path fill="#BCBEC0" d="M34.4,31.6L34.4,31.6l-2-4.1l-2.1-0.3l-2-0.3l0,0L28,26.2l-1.5,0.1l-0.8,0.2l-2.2,2.7l1.3,3.4l0.1,0.2
			c0.6,0.1,3.3,0.3,3.4,0.4c0,0,0.1,0.1,0.3,2.1c0.1,0.8,0.2,2,0.1,2.1c0,0.2,0.7,2.3,1.2,3.6l1.9-0.4l1.8-2.9l0.1-2.5l0,0l1.7-2.6
			l0.5-0.7l-1.2-0.3L34.4,31.6z"/>
		<polygon fill="#BCBEC0" points="25.8,22.5 25.5,23.1 26.2,23.4 27,22.9 26.4,21.5 25.9,21.7 		"/>
		<path fill="#BCBEC0" d="M51.9,35.7c-0.3,0.2-1.6,0.3-2.4,0.3l-3.4,2.1c-0.1,0.9-0.3,2.2-0.4,2.5c0.4-0.1,2-0.2,3.3-0.3l0,0l0,0
			l1.6,1.1l2.9-2.3C53,37.9,52.1,36,51.9,35.7z"/>
		<path fill="#BCBEC0" d="M51.6,35l1.5-0.3l-1.5-0.8c-0.4,0.1-1.3,0.2-1.7,0.2L51.6,35z"/>
		<polygon fill="#BCBEC0" points="47.5,34.6 48.3,33.9 48,32.6 48.1,32.6 48,32.4 47.8,32.6 47.9,32.6 46.7,34.1 		"/>
		<polygon fill="#BCBEC0" points="48.1,35.7 46,34.5 44.6,33.2 44.6,33.7 46.2,35.2 		"/>
		<polygon fill="#BCBEC0" points="49.3,35 48.9,33.6 48.4,34.7 		"/>
		<path fill="#BCBEC0" d="M44.9,32.5l0.1,0.1h0.4L46,32l0.2-1.5l0,0l1.7-1.8l-0.5-2.4l0,0l2.1-2.2l-1.7-1.3l0.4-1.2l1.8,0.2l0,0
			l1.1,1.1l0.5,0.2l-0.1-1.5l0.1,0.1c1-0.7,1.4-0.9,1.6-1c-0.9-0.2-5.3-0.9-7.7-1.2l-0.9-0.2l-5-0.9L33,19.7l-0.9,0.2l0,0l-2-0.5
			l-2.2,2.1l0.4,0.9l-2.1,1.8l-1.1,0.8l0.6,1.2l0.6-0.2l1.5-1.3l1.4,1v0.3l0.5-0.4l-0.3-1l1.2,1.3l2.1,0.1l-0.5-0.8l-0.8-0.1
			l0.5-1.3l0.1,0l1.7,0.8l0,0.5l-0.7,1.1l-0.3,0.8l2,4l0.1,0l2.1-1.3l0.4-1.3l2.2,0.5l0,0l1.6,3.1l0.3-1.7l0,0l1.9-1.6l0,0.1
			l1.5,2.9L44.9,32.5z M30.8,22.2l-2.3,0.5l0.9-0.9l0.2-0.8l0,0l1-0.6L30.8,22.2L30.8,22.2z"/>
		<path fill="#BCBEC0" d="M20.1,32.6l-2.6-1.4l-1.5,0.7l-0.2,0.7l0,0.1l-0.4,2.5l1.9,3l1.1,5.9l1.6,1l-0.5-1.7l0,0
			c0.8-1.6,0.9-1.6,0.9-1.6c0.3-0.3,1.5-2.1,2.4-3.4l1.1-2.9L21,33.1L20.1,32.6z"/>
		<path fill="#BCBEC0" d="M15.7,31.9l-0.8-1.3l-0.7-1l-1.3,0.5l-0.5-1.7l0,0l1.4-0.7l0,0l1,0.4l0.9,0.4l0.1-1.1l0,0l1.2-1.3l2.2-1.5
			l2.3-1.5l-0.7-1.6h-1.8l-1.5,1.1l-1.2-0.9l2.8-1.4l1.1,0.4h1l0.5-0.8L20.4,19l1.8-0.7l1.4,0.9l0,0l-0.2,2.2l0.7,0.2l0.6-0.9l0,0
			l2.9-0.9l1.6-2.2h-8.5l-1.5,0.8l-3.5,0.5l-1,0.4l-1,0.5l0,0c-1.1-0.1-3.5-0.3-3.7-0.5c-0.3,0.1-2.3,1.3-3.6,2.1l0.2,0.8l3.3-0.6
			l0,0.1c0.2,1.4,0.2,2.1,0.1,2.2c-0.1,0.1-0.4,1.4-0.7,2.6l1.8,3.6l1.9,0.8l1.8,1.1l0.7,0.4L15.7,31.9z"/>
	</g>
	<rect x="32.4" y="11.7" fill="#26AEDB" width="5" height="5"/>
	<polygon fill="#26AEDB" points="12.8,38.6 10.3,43.6 15.3,43.6 	"/>
	<circle fill="#26AEDB" cx="40.5" cy="37.9" r="2.5"/>
	<polygon fill="#26AEDB" points="54.7,15.5 53.4,14.2 52.2,15.5 50.9,14.2 49.7,15.5 50.9,16.7 49.7,18 50.9,19.2 52.2,18 
		53.4,19.2 54.7,18 53.4,16.7 	"/>
</g>
<g id="Layer_3">
</g>
</svg>
