<?xml version="1.0" encoding="utf-8"?>
<!-- Generator: Adobe Illustrator 18.1.1, SVG Export Plug-In . SVG Version: 6.00 Build 0)  -->
<svg version="1.1" id="design" xmlns="http://www.w3.org/2000/svg" xmlns:xlink="http://www.w3.org/1999/xlink" x="0px" y="0px"
	 viewBox="0 0 60 60" enable-background="new 0 0 60 60" xml:space="preserve">
<g id="XMLID_1091_">
	<g id="XMLID_1110_">
		<polygon id="XMLID_1112_" fill="#BCBEC0" points="31.6,40.8 31.7,39 30.7,40.9 		"/>
		<path id="XMLID_1111_" fill="#BCBEC0" d="M32,34.9l-1-0.3l-0.2,0l0-0.1L29,31.1l-1.8-0.3l-1.7-0.2l0,0l-0.3-0.5L24,30.2l-0.7,0.2
			l-1.8,2.3l1.1,2.9l0.1,0.1c0.5,0,2.8,0.3,2.9,0.4c0,0,0.1,0.1,0.3,1.8c0.1,0.7,0.1,1.7,0.1,1.8c0,0.1,0.6,1.9,1,3.1l1.6-0.4
			l1.5-2.5l0.1-2.1l0,0l1.4-2.2L32,34.9z"/>
	</g>
	<g id="XMLID_1103_">
		<polygon id="XMLID_1108_" fill="#BCBEC0" points="24.5,27.3 24,26.1 23.6,26.2 23.5,26.9 23.3,27.4 23.9,27.7 		"/>
		<path id="XMLID_1104_" fill="#BCBEC0" d="M28.7,28.1l1.4,0.7l1.8-1.9l-2.3-2.5l-0.8,0.2l0,0l-1.7-0.4L25.3,26l0.3,0.8l-1.8,1.6
			l-0.9,0.7l0.5,1.1l0.5-0.1l1.1-1.1l1,0.9V30l0.6-0.4l-0.2-0.9l1,1.1l1.8,0.1l0.4-0.6l-1.5-0.1L28.7,28.1L28.7,28.1z M27.7,26.6
			l-2,0.5l0.7-0.8l0.2-0.7l0,0l0.9-0.5L27.7,26.6L27.7,26.6z"/>
	</g>
	<g id="XMLID_1096_">
		<path id="XMLID_1102_" fill="#BCBEC0" d="M45.6,38.1c-0.2,0.1-1.4,0.2-2.1,0.3l-2.9,1.7c-0.1,0.8-0.3,1.8-0.3,2.1
			c0.4-0.1,1.7-0.2,2.8-0.2h0l0,0l1.4,1l2.4-2C46.5,39.9,45.8,38.3,45.6,38.1z"/>
		<path id="XMLID_1100_" fill="#BCBEC0" d="M46.7,37.1l-1.2-0.7c-0.3,0-1.1,0.2-1.4,0.2l1.4,0.8L46.7,37.1z"/>
		<polygon id="XMLID_1099_" fill="#BCBEC0" points="41.9,37.1 42.5,36.5 42.3,35.5 42.3,35.5 42.3,35.3 42.1,35.5 42.2,35.5 
			41.2,36.7 		"/>
		<polygon id="XMLID_1098_" fill="#BCBEC0" points="42.3,38 40.4,37 39,35.9 39,36.3 40.6,37.6 		"/>
		<polygon id="XMLID_1097_" fill="#BCBEC0" points="43.1,36.3 42.6,37.2 43.4,37.5 		"/>
	</g>
	<path id="XMLID_1095_" fill="#BCBEC0" d="M45.4,26.2c0.8-0.6,1.2-0.8,1.3-0.9c-0.8-0.1-4.5-0.7-6.5-1.1l-0.8-0.1l-4.2-0.8l-5.4,1.2
		l2.3,2.5l-2,2.1l-0.1,0.2l-0.6,1l-0.3,0.7l1.7,3.4l0.1,0l1.8-1.1l0.4-1.1l1.8,0.5l0,0l1.3,2.6l0.3-1.5l0,0l1.6-1.3l0,0.1l1.3,2.5
		l0.2,0.1l0.1-0.1h0.3l0.6-0.3l0.1-1.1l0,0l1.5-1.5l-0.4-2l0,0l1.7-1.9l-1.5-1.1l0.4-1l1.5,0.2l0,0l0.9,0.9l0.4,0.2L45.4,26.2
		L45.4,26.2z"/>
	<path id="XMLID_1093_" fill="#BCBEC0" d="M19.5,35.9l-0.8-0.4l-2.2-1.2l-1.3,0.6l-0.2,0.6l0,0.1l-0.3,2.1l1.6,2.5l0.9,5l1.4,0.9
		l-0.5-1.5l0,0c0.7-1.3,0.8-1.4,0.8-1.4c0.2-0.3,1.3-1.8,2-2.9l1-2.4L19.5,35.9z"/>
	<path id="XMLID_1092_" fill="#BCBEC0" d="M19.3,23L18,23.6l-3,0.3l-0.8,0.5L13.3,25h0c-0.9,0-3-0.5-3.1-0.6c-0.3,0.1-1.9,1-3.1,1.7
		l0.1,0.6l2.8-0.5l0,0c0.2,1.2,0.2,1.8,0.1,1.8c-0.1,0.1-0.4,1.2-0.6,2.2l1.6,3l1.6,0.6l1.6,0.9l0.6,0.4l0.1-0.3l-0.7-1.1l-0.6-0.9
		l-1.1,0.4l-0.4-1.4l0,0l1.2-0.6l0,0l0.8,0.4L15,32l0-0.9l0,0l1-1.1l1.9-1.2l1.9-1.3L19.4,26h-1.5l-1.3,0.9l-1-0.7l2.4-1.4l0.9,0.2
		h0.8l0.5-0.5l-1.2-0.7l1.5-0.5l1.2,0.8l0,0L21.5,26l0.6,0.1l0.5-0.7l0,0l2.5-0.6l1.4-1.8H19.3z"/>
</g>
<g id="XMLID_198_">
	<g id="XMLID_681_">
		<circle id="XMLID_548_" fill="#26AEDB" cx="31.2" cy="20" r="2.1"/>
		<path id="XMLID_549_" fill="#FFFFFF" d="M31.2,22.4c-1.3,0-2.4-1.1-2.4-2.4s1.1-2.4,2.4-2.4s2.4,1.1,2.4,2.4S32.5,22.4,31.2,22.4z
			 M31.2,18.2c-1,0-1.9,0.8-1.9,1.9s0.8,1.9,1.9,1.9c1,0,1.9-0.8,1.9-1.9S32.3,18.2,31.2,18.2z"/>
	</g>
	<g id="XMLID_689_">
		<circle id="XMLID_536_" fill="#26AEDB" cx="31.2" cy="27.5" r="1.8"/>
		<path id="XMLID_538_" fill="#FFFFFF" d="M31.2,29.5c-1.1,0-2-0.9-2-2c0-1.1,0.9-2,2-2c1.1,0,2,0.9,2,2
			C33.3,28.6,32.3,29.5,31.2,29.5z M31.2,25.9c-0.8,0-1.5,0.7-1.5,1.5s0.7,1.5,1.5,1.5c0.8,0,1.5-0.7,1.5-1.5S32.1,25.9,31.2,25.9z"
			/>
	</g>
	<g id="XMLID_711_">
		<circle id="XMLID_532_" fill="#26AEDB" cx="38" cy="27.5" r="1.8"/>
		<path id="XMLID_533_" fill="#FFFFFF" d="M38,29.5c-1.1,0-2-0.9-2-2c0-1.1,0.9-2,2-2c1.1,0,2,0.9,2,2C40.1,28.6,39.1,29.5,38,29.5z
			 M38,25.9c-0.8,0-1.5,0.7-1.5,1.5S37.2,29,38,29s1.5-0.7,1.5-1.5S38.9,25.9,38,25.9z"/>
	</g>
	<g id="XMLID_456_">
		<path id="XMLID_519_" fill="#26AEDB" d="M46.6,27.1c-0.2-0.8-0.9-1.4-1.7-1.4c-0.3,0-0.6,0.1-0.9,0.2c-0.5,0.3-0.9,0.9-0.9,1.5
			c0,0.6,0.3,1.2,0.9,1.5l0.1,0c0.3,0.1,0.5,0.2,0.9,0.2c1,0,1.8-0.8,1.8-1.8C46.6,27.3,46.6,27.2,46.6,27.1z"/>
		<path id="XMLID_520_" fill="#FFFFFF" d="M44.8,29.5c-0.3,0-0.7-0.1-1-0.3l-0.1,0c-0.6-0.4-1-1-1-1.7c0-0.7,0.4-1.4,1-1.8
			c0.3-0.2,0.6-0.3,1-0.3c0.9,0,1.8,0.7,2,1.6c0,0.1,0,0.3,0,0.4C46.9,28.6,46,29.5,44.8,29.5z M44.8,25.9c-0.3,0-0.5,0.1-0.7,0.2
			c-0.5,0.3-0.8,0.8-0.8,1.3c0,0.5,0.3,1,0.7,1.3l0,0c0.2,0.1,0.5,0.2,0.7,0.2c0.8,0,1.5-0.7,1.5-1.5c0-0.1,0-0.2,0-0.3v0
			C46.2,26.4,45.5,25.9,44.8,25.9z"/>
	</g>
	<g id="XMLID_749_">
		<circle id="XMLID_515_" fill="#26AEDB" cx="51.7" cy="27.5" r="1.8"/>
		<path id="XMLID_516_" fill="#FFFFFF" d="M51.7,29.5c-1.1,0-2-0.9-2-2c0-1.1,0.9-2,2-2c1.1,0,2,0.9,2,2
			C53.7,28.6,52.8,29.5,51.7,29.5z M51.7,25.9c-0.8,0-1.5,0.7-1.5,1.5s0.7,1.5,1.5,1.5c0.8,0,1.5-0.7,1.5-1.5S52.5,25.9,51.7,25.9z"
			/>
	</g>
	<g id="XMLID_769_">
		<circle id="XMLID_504_" fill="#26AEDB" cx="31.2" cy="33.6" r="1.1"/>
		<path id="XMLID_511_" fill="#FFFFFF" d="M31.2,35c-0.7,0-1.3-0.6-1.3-1.3s0.6-1.3,1.3-1.3c0.7,0,1.3,0.6,1.3,1.3S32,35,31.2,35z
			 M31.2,32.8c-0.5,0-0.8,0.4-0.8,0.8s0.4,0.8,0.8,0.8s0.8-0.4,0.8-0.8S31.7,32.8,31.2,32.8z"/>
	</g>
	<g id="XMLID_785_">
		<circle id="XMLID_471_" fill="#26AEDB" cx="38" cy="33.6" r="1.1"/>
		<path id="XMLID_499_" fill="#FFFFFF" d="M38,35c-0.7,0-1.3-0.6-1.3-1.3s0.6-1.3,1.3-1.3c0.7,0,1.3,0.6,1.3,1.3S38.8,35,38,35z
			 M38,32.8c-0.5,0-0.8,0.4-0.8,0.8s0.4,0.8,0.8,0.8s0.8-0.4,0.8-0.8S38.5,32.8,38,32.8z"/>
	</g>
	<g id="XMLID_455_">
		<path id="XMLID_459_" fill="#26AEDB" d="M44.8,32.5c-0.4,0-0.7,0.2-0.9,0.5c-0.1,0.2-0.2,0.4-0.2,0.6c0,0.2,0.1,0.5,0.2,0.6
			c0.2,0.3,0.5,0.5,0.9,0.5c0.6,0,1.1-0.5,1.1-1.1C45.9,33,45.4,32.5,44.8,32.5z"/>
		<path id="XMLID_462_" fill="#FFFFFF" d="M44.8,35c-0.4,0-0.8-0.2-1.1-0.6c-0.2-0.2-0.3-0.5-0.3-0.8c0-0.3,0.1-0.5,0.3-0.8
			c0.3-0.4,0.7-0.6,1.1-0.6c0.7,0,1.3,0.6,1.3,1.3S45.6,35,44.8,35z M44.8,32.8c-0.3,0-0.5,0.1-0.7,0.4c-0.1,0.2-0.2,0.3-0.2,0.5
			s0.1,0.3,0.2,0.5c0.2,0.2,0.4,0.4,0.7,0.4c0.5,0,0.8-0.4,0.8-0.8S45.3,32.8,44.8,32.8z"/>
	</g>
	<g id="XMLID_808_">
		<circle id="XMLID_451_" fill="#26AEDB" cx="38" cy="20" r="2.1"/>
		<path id="XMLID_452_" fill="#FFFFFF" d="M38,22.4c-1.3,0-2.4-1.1-2.4-2.4s1.1-2.4,2.4-2.4s2.4,1.1,2.4,2.4S39.3,22.4,38,22.4z
			 M38,18.2c-1,0-1.9,0.8-1.9,1.9s0.8,1.9,1.9,1.9s1.9-0.8,1.9-1.9S39.1,18.2,38,18.2z"/>
	</g>
	<g id="XMLID_457_">
		<path id="XMLID_441_" fill="#26AEDB" d="M44.8,17.9c-0.3,0-0.6,0.1-0.9,0.2c-0.7,0.3-1.2,1.1-1.2,1.9s0.5,1.6,1.2,1.9
			c0.3,0.1,0.6,0.2,0.9,0.2c1.2,0,2.1-0.9,2.1-2.1C46.9,18.9,46,17.9,44.8,17.9z"/>
		<path id="XMLID_448_" fill="#FFFFFF" d="M44.8,22.4c-0.3,0-0.7-0.1-1-0.2c-0.8-0.4-1.4-1.2-1.4-2.1s0.5-1.8,1.4-2.2
			c0.3-0.1,0.6-0.2,1-0.2c1.3,0,2.4,1.1,2.4,2.4S46.1,22.4,44.8,22.4z M44.8,18.2c-0.3,0-0.5,0.1-0.8,0.2c-0.7,0.3-1.1,1-1.1,1.7
			c0,0.7,0.4,1.4,1.1,1.7c0.2,0.1,0.5,0.2,0.8,0.2c1,0,1.9-0.8,1.9-1.9S45.9,18.2,44.8,18.2z"/>
	</g>
	<g id="XMLID_454_">
		<path id="XMLID_430_" fill="#26AEDB" d="M51.6,17.9c-1.2,0-2.1,0.9-2.1,2.1c0,0.8,0.4,1.4,1,1.8c0.3,0.2,0.7,0.3,1.1,0.3
			c0.6,0,1.2-0.3,1.6-0.8c0.3-0.4,0.5-0.8,0.5-1.3C53.8,18.9,52.8,17.9,51.6,17.9z"/>
		<path id="XMLID_431_" fill="#FFFFFF" d="M51.6,22.4c-0.4,0-0.8-0.1-1.2-0.3c-0.7-0.4-1.1-1.2-1.1-2c0-1.3,1.1-2.4,2.4-2.4
			S54,18.7,54,20c0,0.6-0.2,1.1-0.6,1.5C53,22.1,52.3,22.4,51.6,22.4z M51.6,18.2c-1,0-1.9,0.8-1.9,1.9c0,0.7,0.3,1.2,0.9,1.6
			c0.8,0.5,1.8,0.3,2.4-0.4c0.3-0.3,0.4-0.8,0.4-1.2C53.5,19,52.7,18.2,51.6,18.2z"/>
	</g>
</g>
<g id="BG">
</g>
</svg>
