<?xml version="1.0" encoding="utf-8"?>
<!-- Generator: Adobe Illustrator 19.1.0, SVG Export Plug-In . SVG Version: 6.00 Build 0)  -->
<svg version="1.1" id="design" xmlns="http://www.w3.org/2000/svg" xmlns:xlink="http://www.w3.org/1999/xlink" x="0px" y="0px"
	 viewBox="0 0 60 60" enable-background="new 0 0 60 60" xml:space="preserve">
<polygon id="XMLID_436_" opacity="0.2" fill="#28B058" points="17.2,21.3 11.6,35.6 26.4,39 37.8,47.9 37.5,33.1 43.7,20.2 
	29.9,22.1 "/>
<path id="XMLID_435_" fill="#D1D3D4" d="M30.3,31.4l19.5,4.7l0.1-0.2l-19.6-4.7c0-0.1,0-0.1-0.1-0.2L46,18.7l-0.2-0.2L30.1,30.9
	c0,0-0.1,0-0.1,0L29.9,11h-0.2l0.1,19.9c0,0-0.1,0-0.1,0L13.7,18.4l-0.2,0.2L29.5,31c0,0,0,0.1-0.1,0.2l-20,4.7l0.1,0.2l20-4.7
	c0,0.1,0.1,0.1,0.1,0.2l-8.8,18.2l0.2,0.1l8.8-18.1c0,0,0.1,0,0.1,0c0,0,0.1,0,0.1,0l8.6,18.2l0.2-0.1l-8.6-18.2
	C30.3,31.6,30.3,31.5,30.3,31.4z"/>
<path id="XMLID_432_" fill="#28B058" d="M43.8,19.4c-0.4,0-0.6,0.3-0.7,0.6l-12.6,1.7c-0.1-0.3-0.4-0.5-0.7-0.5
	c-0.3,0-0.6,0.2-0.7,0.5l-11.2-0.6c-0.1-0.3-0.4-0.6-0.7-0.6c-0.4,0-0.8,0.3-0.8,0.8c0,0.2,0.1,0.4,0.3,0.6l-5.1,13c0,0-0.1,0-0.1,0
	c-0.4,0-0.8,0.3-0.8,0.8c0,0.4,0.3,0.8,0.8,0.8c0.3,0,0.5-0.2,0.6-0.4l13.3,3.1c0.1,0.4,0.4,0.6,0.7,0.6c0.2,0,0.4-0.1,0.5-0.2
	l10.5,8.2c0,0,0,0.1,0,0.1c0,0.4,0.3,0.8,0.8,0.8c0.4,0,0.8-0.3,0.8-0.8c0-0.3-0.2-0.6-0.5-0.7l-0.3-13.4c0.3-0.1,0.6-0.4,0.6-0.7
	c0-0.2-0.1-0.4-0.3-0.6l5.5-11.6c0.1,0,0.1,0,0.2,0c0.4,0,0.8-0.3,0.8-0.8C44.6,19.8,44.2,19.4,43.8,19.4z M37.7,32.2
	c-0.4,0-0.8,0.3-0.8,0.8c0,0.3,0.2,0.5,0.4,0.6l0.3,13.4c-0.1,0-0.2,0.1-0.2,0.1l-10.5-8.2c0,0,0-0.1,0-0.1c0-0.4-0.3-0.8-0.8-0.8
	c-0.3,0-0.5,0.2-0.6,0.4l-13.3-3.1c0-0.1-0.1-0.2-0.2-0.3L17.2,22c0.3,0,0.5-0.2,0.7-0.4l11.2,0.6c0.1,0.3,0.4,0.5,0.7,0.5
	c0.3,0,0.6-0.2,0.7-0.5l12.7-1.7c0,0,0,0.1,0.1,0.1L37.7,32.2C37.7,32.3,37.7,32.2,37.7,32.2z"/>
<g id="BG">
</g>
</svg>
