<?xml version="1.0" encoding="utf-8"?>
<!-- Generator: Adobe Illustrator 19.1.0, SVG Export Plug-In . SVG Version: 6.00 Build 0)  -->
<svg version="1.1" id="design" xmlns="http://www.w3.org/2000/svg" xmlns:xlink="http://www.w3.org/1999/xlink" x="0px" y="0px"
	 viewBox="0 0 60 60" enable-background="new 0 0 60 60" xml:space="preserve">
<g id="XMLID_1129_">
	<g id="XMLID_1147_">
		<polygon id="XMLID_1150_" fill="#BCBEC0" points="31.6,40.8 31.7,39 30.7,40.9 		"/>
		<path id="XMLID_1148_" fill="#BCBEC0" d="M32,34.9l-1-0.3l-0.2,0l0-0.1L29,31.1l-1.8-0.3l-1.7-0.2l0,0l-0.3-0.5L24,30.2l-0.7,0.2
			l-1.8,2.3l1.1,2.9l0.1,0.1c0.5,0,2.8,0.3,2.9,0.4c0,0,0.1,0.1,0.3,1.8c0.1,0.7,0.1,1.7,0.1,1.8c0,0.1,0.6,1.9,1,3.1l1.6-0.4
			l1.5-2.5l0.1-2.1l0,0l1.4-2.2L32,34.9z"/>
	</g>
	<g id="XMLID_1142_">
		<polygon id="XMLID_1146_" fill="#BCBEC0" points="24.5,27.3 24,26.1 23.6,26.2 23.5,26.9 23.3,27.4 23.9,27.7 		"/>
		<path id="XMLID_1143_" fill="#BCBEC0" d="M28.7,28.1l1.4,0.7l1.8-1.9l-2.3-2.5l-0.8,0.2l0,0l-1.7-0.4L25.3,26l0.3,0.8l-1.8,1.6
			l-0.9,0.7l0.5,1.1l0.5-0.1l1.1-1.1l1,0.9V30l0.6-0.4l-0.2-0.9l1,1.1l1.8,0.1l0.4-0.6l-1.5-0.1L28.7,28.1L28.7,28.1z M27.7,26.6
			l-2,0.5l0.7-0.8l0.2-0.7l0,0l0.9-0.5L27.7,26.6L27.7,26.6z"/>
	</g>
	<g id="XMLID_1134_">
		<path id="XMLID_1141_" fill="#BCBEC0" d="M45.6,38.1c-0.2,0.1-1.4,0.2-2.1,0.3l-2.9,1.7c-0.1,0.8-0.3,1.8-0.3,2.1
			c0.4-0.1,1.7-0.2,2.8-0.2h0l0,0l1.4,1l2.4-2C46.5,39.9,45.8,38.3,45.6,38.1z"/>
		<path id="XMLID_1140_" fill="#BCBEC0" d="M46.7,37.1l-1.2-0.7c-0.3,0-1.1,0.2-1.4,0.2l1.4,0.8L46.7,37.1z"/>
		<polygon id="XMLID_1138_" fill="#BCBEC0" points="41.9,37.1 42.5,36.5 42.3,35.5 42.3,35.5 42.3,35.3 42.1,35.5 42.2,35.5 
			41.2,36.7 		"/>
		<polygon id="XMLID_1137_" fill="#BCBEC0" points="42.3,38 40.4,37 39,35.9 39,36.3 40.6,37.6 		"/>
		<polygon id="XMLID_1136_" fill="#BCBEC0" points="43.1,36.3 42.6,37.2 43.4,37.5 		"/>
	</g>
	<path id="XMLID_1133_" fill="#BCBEC0" d="M45.4,26.2c0.8-0.6,1.2-0.8,1.3-0.9c-0.8-0.1-4.5-0.7-6.5-1.1l-0.8-0.1l-4.2-0.8l-5.4,1.2
		l2.3,2.5l-2,2.1l-0.1,0.2l-0.6,1l-0.3,0.7l1.7,3.4l0.1,0l1.8-1.1l0.4-1.1l1.8,0.5l0,0l1.3,2.6l0.3-1.5l0,0l1.6-1.3l0,0.1l1.3,2.5
		l0.2,0.1l0.1-0.1h0.3l0.6-0.3l0.1-1.1l0,0l1.5-1.5l-0.4-2l0,0l1.7-1.9l-1.5-1.1l0.4-1l1.5,0.2l0,0l0.9,0.9l0.4,0.2L45.4,26.2
		L45.4,26.2z"/>
	<path id="XMLID_1132_" fill="#BCBEC0" d="M19.5,35.9l-0.8-0.4l-2.2-1.2l-1.3,0.6l-0.2,0.6l0,0.1l-0.3,2.1l1.6,2.5l0.9,5l1.4,0.9
		l-0.5-1.5l0,0c0.7-1.3,0.8-1.4,0.8-1.4c0.2-0.3,1.3-1.8,2-2.9l1-2.4L19.5,35.9z"/>
	<path id="XMLID_1130_" fill="#BCBEC0" d="M19.3,23L18,23.6l-3,0.3l-0.8,0.5L13.3,25h0c-0.9,0-3-0.5-3.1-0.6c-0.3,0.1-1.9,1-3.1,1.7
		l0.1,0.6l2.8-0.5l0,0c0.2,1.2,0.2,1.8,0.1,1.8c-0.1,0.1-0.4,1.2-0.6,2.2l1.6,3l1.6,0.6l1.6,0.9l0.6,0.4l0.1-0.3l-0.7-1.1l-0.6-0.9
		l-1.1,0.4l-0.4-1.4l0,0l1.2-0.6l0,0l0.8,0.4L15,32l0-0.9l0,0l1-1.1l1.9-1.2l1.9-1.3L19.4,26h-1.5l-1.3,0.9l-1-0.7l2.4-1.4l0.9,0.2
		h0.8l0.5-0.5l-1.2-0.7l1.5-0.5l1.2,0.8l0,0L21.5,26l0.6,0.1l0.5-0.7l0,0l2.5-0.6l1.4-1.8H19.3z"/>
</g>
<g id="XMLID_288_">
	<g id="XMLID_896_">
		<path id="XMLID_1258_" fill="#28B058" d="M45.2,25.7c-0.1,0-0.1,0-0.2,0c-0.5,0-0.9,0.4-0.9,0.9c0,0.3,0.2,0.6,0.4,0.7
			c0.1,0.1,0.3,0.2,0.5,0.2c0.5,0,0.9-0.4,0.9-0.9C45.9,26.1,45.6,25.8,45.2,25.7z"/>
		<path id="XMLID_1265_" fill="#FFFFFF" d="M45,27.6c-0.2,0-0.4-0.1-0.6-0.2c-0.3-0.2-0.5-0.6-0.5-0.9c0-0.6,0.5-1.1,1.1-1.1
			c0.1,0,0.2,0,0.2,0l0,0.3l0.1-0.2c0.5,0.1,0.8,0.6,0.8,1.1C46.1,27.1,45.6,27.6,45,27.6z M45,25.9c-0.3,0-0.6,0.3-0.6,0.6
			c0,0.2,0.1,0.4,0.3,0.5c0.1,0.1,0.2,0.1,0.3,0.1c0.3,0,0.6-0.3,0.6-0.6c0-0.3-0.2-0.5-0.5-0.6l0,0C45.1,25.9,45,25.9,45,25.9z"/>
	</g>
	<g id="XMLID_1032_">
		<circle id="XMLID_1254_" fill="#28B058" cx="45" cy="23" r="0.9"/>
		<path id="XMLID_1255_" fill="#FFFFFF" d="M45,24.1c-0.6,0-1.1-0.5-1.1-1.1s0.5-1.1,1.1-1.1s1.1,0.5,1.1,1.1S45.6,24.1,45,24.1z
			 M45,22.4c-0.3,0-0.6,0.3-0.6,0.6s0.3,0.6,0.6,0.6s0.6-0.3,0.6-0.6S45.3,22.4,45,22.4z"/>
	</g>
	<g id="XMLID_1040_">
		<circle id="XMLID_1249_" fill="#28B058" cx="50.9" cy="23" r="0.9"/>
		<path id="XMLID_1251_" fill="#FFFFFF" d="M50.9,24.1c-0.6,0-1.1-0.5-1.1-1.1s0.5-1.1,1.1-1.1s1.1,0.5,1.1,1.1S51.6,24.1,50.9,24.1
			z M50.9,22.4c-0.3,0-0.6,0.3-0.6,0.6s0.3,0.6,0.6,0.6s0.6-0.3,0.6-0.6S51.3,22.4,50.9,22.4z"/>
	</g>
	<g id="XMLID_1049_">
		<circle id="XMLID_1245_" fill="#28B058" cx="51" cy="12.6" r="0.9"/>
		<path id="XMLID_1246_" fill="#FFFFFF" d="M51,13.7c-0.6,0-1.1-0.5-1.1-1.1s0.5-1.1,1.1-1.1s1.1,0.5,1.1,1.1S51.6,13.7,51,13.7z
			 M51,12c-0.3,0-0.6,0.3-0.6,0.6s0.3,0.6,0.6,0.6s0.6-0.3,0.6-0.6S51.3,12,51,12z"/>
	</g>
	<g id="XMLID_1056_">
		<circle id="XMLID_1241_" fill="#28B058" cx="45" cy="16.1" r="0.9"/>
		<path id="XMLID_1242_" fill="#FFFFFF" d="M45,17.2c-0.6,0-1.1-0.5-1.1-1.1S44.3,15,45,15s1.1,0.5,1.1,1.1S45.6,17.2,45,17.2z
			 M45,15.5c-0.3,0-0.6,0.3-0.6,0.6s0.3,0.6,0.6,0.6s0.6-0.3,0.6-0.6S45.3,15.5,45,15.5z"/>
	</g>
	<g id="XMLID_1063_">
		<circle id="XMLID_1213_" fill="#28B058" cx="43.9" cy="10.2" r="0.9"/>
		<path id="XMLID_1214_" fill="#FFFFFF" d="M43.9,11.3c-0.6,0-1.1-0.5-1.1-1.1s0.5-1.1,1.1-1.1s1.1,0.5,1.1,1.1S44.6,11.3,43.9,11.3
			z M43.9,9.6c-0.3,0-0.6,0.3-0.6,0.6s0.3,0.6,0.6,0.6s0.6-0.3,0.6-0.6S44.3,9.6,43.9,9.6z"/>
	</g>
	<g id="XMLID_1073_">
		<circle id="XMLID_1209_" fill="#28B058" cx="39" cy="19.5" r="0.9"/>
		<path id="XMLID_1210_" fill="#FFFFFF" d="M39,20.7c-0.6,0-1.1-0.5-1.1-1.1s0.5-1.1,1.1-1.1s1.1,0.5,1.1,1.1S39.6,20.7,39,20.7z
			 M39,18.9c-0.3,0-0.6,0.3-0.6,0.6s0.3,0.6,0.6,0.6s0.6-0.3,0.6-0.6S39.3,18.9,39,18.9z"/>
	</g>
	<g id="XMLID_1080_">
		<circle id="XMLID_1204_" fill="#28B058" cx="32.9" cy="26.4" r="0.9"/>
		<path id="XMLID_1205_" fill="#FFFFFF" d="M32.9,27.6c-0.6,0-1.1-0.5-1.1-1.1s0.5-1.1,1.1-1.1s1.1,0.5,1.1,1.1S33.5,27.6,32.9,27.6
			z M32.9,25.8c-0.3,0-0.6,0.3-0.6,0.6s0.3,0.6,0.6,0.6s0.6-0.3,0.6-0.6S33.2,25.8,32.9,25.8z"/>
	</g>
	<g id="XMLID_897_">
		<path id="XMLID_1200_" fill="#28B058" d="M26.9,29c-0.3,0-0.6,0.2-0.7,0.4c-0.1,0.1-0.1,0.3-0.1,0.4c0,0.4,0.3,0.8,0.8,0.9
			c0,0,0.1,0,0.1,0c0.5,0,0.9-0.4,0.9-0.9S27.4,29,26.9,29z"/>
		<path id="XMLID_1201_" fill="#FFFFFF" d="M26.9,31l-0.1,0c-0.6-0.1-1-0.5-1-1.1c0-0.2,0.1-0.4,0.2-0.6c0.2-0.3,0.6-0.6,1-0.6
			c0.6,0,1.1,0.5,1.1,1.1S27.5,31,26.9,31z M26.9,29.3c-0.2,0-0.4,0.1-0.5,0.3c-0.1,0.1-0.1,0.2-0.1,0.3c0,0.3,0.2,0.6,0.6,0.6
			l0.1,0c0,0,0,0,0,0c0.3,0,0.6-0.3,0.6-0.6C27.5,29.6,27.2,29.3,26.9,29.3z"/>
	</g>
	<g id="XMLID_1094_">
		<circle id="XMLID_636_" fill="#28B058" cx="26.9" cy="33.3" r="0.9"/>
		<path id="XMLID_1197_" fill="#FFFFFF" d="M26.9,34.4c-0.6,0-1.1-0.5-1.1-1.1s0.5-1.1,1.1-1.1s1.1,0.5,1.1,1.1S27.5,34.4,26.9,34.4
			z M26.9,32.7c-0.3,0-0.6,0.3-0.6,0.6s0.3,0.6,0.6,0.6s0.6-0.3,0.6-0.6S27.2,32.7,26.9,32.7z"/>
	</g>
	<g id="XMLID_1101_">
		<circle id="XMLID_621_" fill="#28B058" cx="32.9" cy="36.7" r="0.9"/>
		<path id="XMLID_622_" fill="#FFFFFF" d="M32.9,37.8c-0.6,0-1.1-0.5-1.1-1.1s0.5-1.1,1.1-1.1s1.1,0.5,1.1,1.1S33.5,37.8,32.9,37.8z
			 M32.9,36.1c-0.3,0-0.6,0.3-0.6,0.6s0.3,0.6,0.6,0.6s0.6-0.3,0.6-0.6S33.3,36.1,32.9,36.1z"/>
	</g>
	<g id="XMLID_1109_">
		<circle id="XMLID_617_" fill="#28B058" cx="20.9" cy="33.2" r="0.9"/>
		<path id="XMLID_618_" fill="#FFFFFF" d="M20.9,34.3c-0.6,0-1.1-0.5-1.1-1.1s0.5-1.1,1.1-1.1s1.1,0.5,1.1,1.1S21.5,34.3,20.9,34.3z
			 M20.9,32.6c-0.3,0-0.6,0.3-0.6,0.6s0.3,0.6,0.6,0.6s0.6-0.3,0.6-0.6S21.2,32.6,20.9,32.6z"/>
	</g>
	<g id="XMLID_1116_">
		<circle id="XMLID_606_" fill="#28B058" cx="20.9" cy="40.2" r="0.9"/>
		<path id="XMLID_608_" fill="#FFFFFF" d="M20.9,41.3c-0.6,0-1.1-0.5-1.1-1.1s0.5-1.1,1.1-1.1s1.1,0.5,1.1,1.1S21.5,41.3,20.9,41.3z
			 M20.9,39.6c-0.3,0-0.6,0.3-0.6,0.6s0.3,0.6,0.6,0.6s0.6-0.3,0.6-0.6S21.2,39.6,20.9,39.6z"/>
	</g>
	<g id="XMLID_1124_">
		<circle id="XMLID_583_" fill="#28B058" cx="14.9" cy="40.1" r="0.9"/>
		<path id="XMLID_584_" fill="#FFFFFF" d="M14.9,41.3c-0.6,0-1.1-0.5-1.1-1.1s0.5-1.1,1.1-1.1s1.1,0.5,1.1,1.1S15.5,41.3,14.9,41.3z
			 M14.9,39.5c-0.3,0-0.6,0.3-0.6,0.6s0.3,0.6,0.6,0.6s0.6-0.3,0.6-0.6S15.2,39.5,14.9,39.5z"/>
	</g>
	<g id="XMLID_1131_">
		<circle id="XMLID_579_" fill="#28B058" cx="8.9" cy="43.6" r="0.9"/>
		<path id="XMLID_580_" fill="#FFFFFF" d="M8.9,44.8c-0.6,0-1.1-0.5-1.1-1.1s0.5-1.1,1.1-1.1S10,43,10,43.6S9.5,44.8,8.9,44.8z
			 M8.9,43c-0.3,0-0.6,0.3-0.6,0.6s0.3,0.6,0.6,0.6s0.6-0.3,0.6-0.6S9.2,43,8.9,43z"/>
	</g>
	<g id="XMLID_1139_">
		<circle id="XMLID_575_" fill="#28B058" cx="8.9" cy="50.6" r="0.9"/>
		<path id="XMLID_576_" fill="#FFFFFF" d="M8.9,51.7c-0.6,0-1.1-0.5-1.1-1.1s0.5-1.1,1.1-1.1S10,50,10,50.6S9.5,51.7,8.9,51.7z
			 M8.9,50c-0.3,0-0.6,0.3-0.6,0.6s0.3,0.6,0.6,0.6s0.6-0.3,0.6-0.6S9.2,50,8.9,50z"/>
	</g>
</g>
<g id="BG">
</g>
</svg>
