<?xml version="1.0" encoding="utf-8"?>
<!-- Generator: Adobe Illustrator 19.1.0, SVG Export Plug-In . SVG Version: 6.00 Build 0)  -->
<svg version="1.1" id="design" xmlns="http://www.w3.org/2000/svg" xmlns:xlink="http://www.w3.org/1999/xlink" x="0px" y="0px"
	 viewBox="0 0 60 60" enable-background="new 0 0 60 60" xml:space="preserve">
<g id="BG">
</g>
<g>
	<path fill="#28B058" d="M12.2,30.2c0-2.6,1.4-4,3.5-4c2.1,0,3.5,1.5,3.5,4c0,2.6-1.4,4.1-3.5,4.1C13.6,34.3,12.2,32.8,12.2,30.2z
		 M17.5,30.2c0-1.6-0.7-2.5-1.7-2.5S14,28.7,14,30.2c0,1.6,0.7,2.6,1.7,2.6S17.5,31.8,17.5,30.2z"/>
	<path fill="#28B058" d="M22.1,27.8h-2.1v-1.5H26v1.5h-2.1v6.3h-1.8V27.8z"/>
	<path fill="#28B058" d="M27.2,26.3H29v3h2.7v-3h1.8v7.8h-1.8v-3.3H29v3.3h-1.8V26.3z"/>
	<path fill="#28B058" d="M35.3,26.3h4.9v1.5h-3.1v1.6h2.7v1.5h-2.7v1.8h3.2v1.5h-5V26.3z"/>
	<path fill="#28B058" d="M46.1,34.2l-1.5-2.8h-1v2.8h-1.8v-7.8h2.8c1.7,0,3,0.6,3,2.4c0,1.2-0.6,1.9-1.4,2.3l1.8,3.1H46.1z
		 M43.6,29.9h0.9c0.9,0,1.4-0.4,1.4-1.2s-0.5-1-1.4-1h-0.9V29.9z"/>
</g>
</svg>
