<?xml version="1.0" encoding="utf-8"?>
<!-- Generator: Adobe Illustrator 18.1.1, SVG Export Plug-In . SVG Version: 6.00 Build 0)  -->
<svg version="1.1" id="design" xmlns="http://www.w3.org/2000/svg" xmlns:xlink="http://www.w3.org/1999/xlink" x="0px" y="0px"
	 viewBox="0 0 60 60" enable-background="new 0 0 60 60" xml:space="preserve">
<g id="XMLID_669_">
	<rect id="XMLID_725_" x="41" y="30" fill="#26AEDB" width="1" height="7"/>
</g>
<g id="XMLID_668_">
	<rect id="XMLID_672_" x="41" y="14" fill="#26AEDB" width="1" height="5"/>
</g>
<g id="XMLID_728_">
	<path id="XMLID_244_" fill="#26AEDB" d="M47.8,44.9c-0.4,0-0.9,0-1.4,0c-3.5,0-8.2,0-11.1-5.5c-2.8-5.2-5-9.4-6.3-9.4h-0.1
		c-1.3,0-3.5,4.1-6.3,9.4c-2.9,5.4-7.7,5.5-11.1,5.5c-0.5,0-0.9,0-1.4,0l0-1c0.4,0,0.9,0,1.4,0c3.4,0,7.6,0,10.3-5
		c3.4-6.4,5.3-9.9,7.2-9.9H29c1.9,0,3.8,3.5,7.2,9.9c2.6,4.9,6.9,4.9,10.3,5c0.5,0,0.9,0,1.4,0L47.8,44.9z"/>
</g>
<rect id="XMLID_41_" x="39" y="37" fill="#26AEDB" width="5" height="1"/>
<rect id="XMLID_142_" x="39" y="13" fill="#26AEDB" width="5" height="1"/>
<rect id="XMLID_137_" x="38" y="19" fill="#26AEDB" width="1" height="12"/>
<rect id="XMLID_663_" x="44" y="19" fill="#26AEDB" width="1" height="12"/>
<rect id="XMLID_139_" x="38" y="18" fill="#26AEDB" width="7" height="1"/>
<rect id="XMLID_666_" x="38" y="30" fill="#26AEDB" width="7" height="1"/>
<rect id="XMLID_667_" x="38" y="26" fill="#26AEDB" width="7" height="1"/>
<g id="BG">
</g>
</svg>
