<?xml version="1.0" encoding="utf-8"?>
<!-- Generator: Adobe Illustrator 18.1.1, SVG Export Plug-In . SVG Version: 6.00 Build 0)  -->
<svg version="1.1" id="design" xmlns="http://www.w3.org/2000/svg" xmlns:xlink="http://www.w3.org/1999/xlink" x="0px" y="0px"
	 viewBox="0 0 60 60" enable-background="new 0 0 60 60" xml:space="preserve">
<g>
	<rect id="XMLID_490_" x="12" y="12" opacity="0.5" fill="#26AEDB" width="7.2" height="7.2"/>
	<rect id="XMLID_537_" x="12" y="19.2" opacity="0.7" fill="#26AEDB" width="7.2" height="7.2"/>
	<rect id="XMLID_539_" x="12" y="26.4" opacity="0.5" fill="#26AEDB" width="7.2" height="7.2"/>
	<rect id="XMLID_540_" x="12" y="33.6" opacity="0.8" fill="#26AEDB" width="7.2" height="7.2"/>
	<rect id="XMLID_921_" x="12" y="40.8" opacity="0.4" fill="#26AEDB" width="7.2" height="7.2"/>
	<rect id="XMLID_543_" x="33.6" y="12" opacity="0.7" fill="#26AEDB" width="7.2" height="7.2"/>
	<rect id="XMLID_542_" x="33.6" y="19.2" opacity="0.2" fill="#26AEDB" width="7.2" height="7.2"/>
	<rect id="XMLID_541_" x="33.6" y="26.4" opacity="0.4" fill="#26AEDB" width="7.2" height="7.2"/>
	<rect id="XMLID_957_" x="19.2" y="12" opacity="0.8" fill="#26AEDB" width="7.2" height="7.2"/>
	<rect id="XMLID_942_" x="19.2" y="19.2" opacity="0.5" fill="#26AEDB" width="7.2" height="7.2"/>
	<rect id="XMLID_939_" x="19.2" y="26.4" fill="#26AEDB" width="7.2" height="7.2"/>
	<rect id="XMLID_938_" x="19.2" y="33.6" opacity="0.7" fill="#26AEDB" width="7.2" height="7.2"/>
	<rect id="XMLID_935_" x="19.2" y="40.8" opacity="0.8" fill="#26AEDB" width="7.2" height="7.2"/>
	<rect id="XMLID_934_" x="40.8" y="12" opacity="0.25" fill="#26AEDB" width="7.2" height="7.2"/>
	<rect id="XMLID_931_" x="40.8" y="19.2" opacity="0.3" fill="#26AEDB" width="7.2" height="7.2"/>
	<rect id="XMLID_924_" x="40.8" y="26.4" opacity="0.1" fill="#26AEDB" width="7.2" height="7.2"/>
	<rect id="XMLID_981_" x="26.4" y="12" opacity="0.5" fill="#26AEDB" width="7.2" height="7.2"/>
	<rect id="XMLID_980_" x="26.4" y="19.2" opacity="0.6" fill="#26AEDB" width="7.2" height="7.2"/>
	<rect id="XMLID_979_" x="26.4" y="26.4" opacity="0.7" fill="#26AEDB" width="7.2" height="7.2"/>
	<rect id="XMLID_978_" x="26.4" y="33.6" opacity="0.4" fill="#26AEDB" width="7.2" height="7.2"/>
	<rect id="XMLID_974_" x="26.4" y="40.8" opacity="0.5" fill="#26AEDB" width="7.2" height="7.2"/>
	<rect id="XMLID_973_" x="33.6" y="33.6" opacity="0.8" fill="#26AEDB" width="7.2" height="7.2"/>
	<rect id="XMLID_966_" x="33.6" y="40.8" opacity="0.2" fill="#26AEDB" width="7.2" height="7.2"/>
	<rect id="XMLID_959_" x="40.8" y="33.6" opacity="0.4" fill="#26AEDB" width="7.2" height="7.2"/>
	<rect id="XMLID_643_" x="40.8" y="40.8" opacity="0.3" fill="#26AEDB" width="7.2" height="7.2"/>
</g>
<g id="BG">
</g>
</svg>
