<?xml version="1.0" encoding="utf-8"?>
<!-- Generator: Adobe Illustrator 21.0.2, SVG Export Plug-In . SVG Version: 6.00 Build 0)  -->
<svg version="1.1" id="Layer_1" xmlns="http://www.w3.org/2000/svg" xmlns:xlink="http://www.w3.org/1999/xlink" x="0px" y="0px"
	 viewBox="0 0 60 60" enable-background="new 0 0 60 60" xml:space="preserve">
<g id="design">
	<g id="BG">
	</g>
	<g id="XMLID_61_">
		<rect id="XMLID_82_" x="10" y="35" fill="#29B159" width="5" height="10"/>
		<rect id="XMLID_79_" x="17" y="24" fill="#29B159" width="5" height="21"/>
		<rect id="XMLID_78_" x="24" y="23" fill="#29B159" width="5" height="22"/>
		<rect id="XMLID_77_" x="31" y="26" fill="#29B159" width="5" height="19"/>
		<rect id="XMLID_76_" x="38" y="34" fill="#29B159" width="5" height="11"/>
		<rect id="XMLID_63_" x="45" y="39" fill="#29B159" width="5" height="6"/>
	</g>
	<path fill="#29B159" d="M50.1,33.3c-2.7,0-7.2-3.9-11.5-10c-2.9-4.1-6.8-6.1-11.7-6c-8.8,0.1-16.4,9-16.5,9l-0.7-0.6
		c0.3-0.4,7.9-9.3,17.1-9.4c5.2-0.1,9.5,2.1,12.5,6.4c4.6,6.6,8.7,9.6,10.7,9.6V33.3z"/>
</g>
<g id="Layer_3">
</g>
</svg>
