<?xml version="1.0" encoding="utf-8"?>
<!-- Generator: Adobe Illustrator 19.1.0, SVG Export Plug-In . SVG Version: 6.00 Build 0)  -->
<svg version="1.1" id="design" xmlns="http://www.w3.org/2000/svg" xmlns:xlink="http://www.w3.org/1999/xlink" x="0px" y="0px"
	 viewBox="0 0 60 60" enable-background="new 0 0 60 60" xml:space="preserve">
<path id="XMLID_487_" fill="#BCBEC0" d="M42,31l-0.2-0.9l0,0l1.1-1.2v-1.1l-0.8-0.6l0.4-1l0.5,0v-1.5c-1-0.2-2-0.3-2.8-0.4l-0.8-0.1
	l-4.2-0.8l-0.2,0V31H42z"/>
<path id="XMLID_489_" fill="#BCBEC0" d="M44.1,26.2L44.1,26.2l1,0.9l0.4,0.2l-0.1-1.3l0.1,0.1c0.8-0.6,1.2-0.8,1.3-0.9
	c-0.4-0.1-1.5-0.2-2.7-0.5L44.1,26.2L44.1,26.2z"/>
<rect id="XMLID_727_" x="35" y="14" fill="#28B058" width="8" height="8"/>
<rect id="XMLID_726_" x="35" y="23" opacity="0.7" fill="#28B058" width="8" height="8"/>
<rect id="XMLID_724_" x="44" y="14" opacity="0.3" fill="#28B058" width="8" height="8"/>
<rect id="XMLID_723_" x="44" y="23" opacity="0.5" fill="#28B058" width="8" height="8"/>
<polygon id="XMLID_8_" fill="none" points="42.5,26.1 42.2,27.1 43,27.7 43,26.1 "/>
<polygon id="XMLID_40_" fill="none" points="43,28.9 41.9,30.1 41.9,30.1 42,31 43,31 "/>
<polygon id="XMLID_42_" fill="none" points="27.8,26.6 27.5,25.1 26.7,25.6 26.6,25.6 26.5,26.3 25.8,27.1 27.7,26.6 "/>
<polygon id="XMLID_43_" fill="#BCBEC0" points="31.6,40.8 31.7,39 30.7,40.9 "/>
<path id="XMLID_45_" fill="#BCBEC0" d="M30.7,34.6L30.7,34.6L29,31.1l-1.8-0.3l-1.7-0.2l0,0l-0.3-0.5L24,30.2l-0.7,0.2l-1.8,2.3
	l1.1,2.9l0.1,0.1c0.5,0,2.8,0.3,2.9,0.4c0,0,0.1,0.1,0.3,1.8c0.1,0.7,0.1,1.7,0.1,1.8c0,0.1,0.6,1.9,1,3.1l1.6-0.4l1.5-2.5l0.1-2.1
	l0,0l1.4-2.2l0.4-0.6l-1-0.3L30.7,34.6z"/>
<polygon id="XMLID_46_" fill="#BCBEC0" points="24.5,27.3 24,26.1 23.6,26.2 23.5,26.9 23.3,27.4 23.9,27.7 "/>
<path id="XMLID_159_" fill="#BCBEC0" d="M25.6,26.8l-1.8,1.6l-0.9,0.7l0.5,1.1l0.5-0.1l1.1-1.1l1,0.9V30l0.6-0.4l-0.2-0.9l1,1.1
	l1.8,0.1l0.4-0.6l-1.5-0.1l0.4-1.1l0,0l1.4,0.7l1.8-1.9l-2.3-2.5l-0.8,0.2l0,0l-1.7-0.4L25.3,26L25.6,26.8z M26.5,26.3l0.2-0.7l0,0
	l0.9-0.5l0.2,1.5l0,0l-2,0.5L26.5,26.3z"/>
<path id="XMLID_473_" fill="#BCBEC0" d="M45.6,38.1c-0.2,0.1-1.4,0.2-2.1,0.3l-2.9,1.7c-0.1,0.8-0.3,1.8-0.3,2.1
	c0.4-0.1,1.7-0.2,2.8-0.2h0l0,0l1.4,1l2.4-2C46.5,39.9,45.8,38.3,45.6,38.1z"/>
<path id="XMLID_474_" fill="#BCBEC0" d="M45.4,37.4l1.3-0.3l-1.2-0.7c-0.3,0-1.1,0.2-1.4,0.2L45.4,37.4z"/>
<polygon id="XMLID_483_" fill="#BCBEC0" points="41.9,37.1 42.5,36.5 42.3,35.5 42.3,35.5 42.3,35.3 42.1,35.5 42.2,35.5 41.2,36.7 
	"/>
<polygon id="XMLID_485_" fill="#BCBEC0" points="42.3,38 40.4,37 39,35.9 39,36.3 40.6,37.6 "/>
<polygon id="XMLID_486_" fill="#BCBEC0" points="43.4,37.5 43.1,36.3 42.6,37.2 "/>
<polygon id="XMLID_488_" fill="#BCBEC0" points="39.6,35.1 39.8,35 40.1,35 40.6,34.7 40.8,33.6 40.8,33.6 42.3,32.1 42.2,32 35,32 
	34,32 34,31 34,23.5 29.8,24.4 32.2,26.9 30.2,29.1 30.1,29.3 29.5,30.2 29.2,30.9 30.9,34.4 30.9,34.3 32.7,33.2 33.1,32.2 
	34.9,32.6 34.9,32.6 36.3,35.3 36.5,33.8 36.6,33.8 38.1,32.5 38.2,32.5 39.4,35 "/>
<path id="XMLID_492_" fill="#BCBEC0" d="M18.7,35.5l-2.2-1.2l-1.3,0.6l-0.2,0.6l0,0.1l-0.3,2.1l1.6,2.5l0.9,5l1.4,0.9l-0.5-1.5l0,0
	c0.7-1.3,0.8-1.4,0.8-1.4c0.2-0.3,1.3-1.8,2-2.9l1-2.4l-2.4-2L18.7,35.5z"/>
<path id="XMLID_493_" fill="#BCBEC0" d="M14.9,34.8l-0.7-1.1l-0.6-0.9l-1.1,0.4l-0.4-1.4l0,0l1.2-0.6l0,0l0.8,0.4L15,32l0-0.9l0,0
	l1-1.1l1.9-1.2l1.9-1.3L19.4,26h-1.5l-1.3,0.9l-1-0.7l2.4-1.4l0.9,0.2h0.8l0.5-0.5l-1.2-0.7l1.5-0.5l1.2,0.8l0,0L21.5,26l0.6,0.1
	l0.5-0.7l0,0l2.5-0.6l1.4-1.8h-7.1L18,23.6l-3,0.3l-0.8,0.5L13.3,25h0c-0.9,0-3-0.5-3.1-0.6c-0.3,0.1-1.9,1-3.1,1.7l0.1,0.6l2.8-0.5
	l0,0c0.2,1.2,0.2,1.8,0.1,1.8c-0.1,0.1-0.4,1.2-0.6,2.2l1.6,3l1.6,0.6l1.6,0.9l0.6,0.4L14.9,34.8z"/>
<g id="BG">
</g>
</svg>
