<?xml version="1.0" encoding="utf-8"?>
<!-- Generator: Adobe Illustrator 21.0.2, SVG Export Plug-In . SVG Version: 6.00 Build 0)  -->
<svg version="1.1" xmlns="http://www.w3.org/2000/svg" xmlns:xlink="http://www.w3.org/1999/xlink" x="0px" y="0px"
	 viewBox="0 0 60 60" enable-background="new 0 0 60 60" xml:space="preserve">
<g id="design">
	<g>
		
			<rect id="XMLID_67_" x="36.5" y="15" transform="matrix(-1 -4.497881e-11 4.497881e-11 -1 84 36)" opacity="0.8" fill="#29B159" width="11" height="6"/>
		
			<rect id="XMLID_66_" x="24.5" y="15" transform="matrix(-1 -4.481361e-11 4.481361e-11 -1 60 36)" opacity="0.8" fill="#29B159" width="11" height="6"/>
		
			<rect id="XMLID_65_" x="36.5" y="22" transform="matrix(-1 -4.497881e-11 4.497881e-11 -1 84 49)" opacity="0.5" fill="#29B159" width="11" height="5"/>
		
			<rect id="XMLID_64_" x="36.5" y="28" transform="matrix(-1 -4.497881e-11 4.497881e-11 -1 84 61)" opacity="0.7" fill="#29B159" width="11" height="5"/>
		
			<rect id="XMLID_62_" x="36.5" y="40" transform="matrix(-1 -4.497881e-11 4.497881e-11 -1 84 85)" opacity="0.2" fill="#29B159" width="11" height="5"/>
		
			<rect id="XMLID_75_" x="12.5" y="15" transform="matrix(-1 -4.481361e-11 4.481361e-11 -1 36 36)" opacity="0.8" fill="#29B159" width="11" height="6"/>
		
			<rect id="XMLID_73_" x="12.5" y="22" transform="matrix(-1 -4.481361e-11 4.481361e-11 -1 36 49)" opacity="0.5" fill="#29B159" width="11" height="5"/>
		
			<rect id="XMLID_70_" x="12.5" y="28" transform="matrix(-1 -4.481361e-11 4.481361e-11 -1 36 61)" fill="#29B159" width="11" height="5"/>
		
			<rect id="XMLID_69_" x="12.5" y="34" transform="matrix(-1 -4.481361e-11 4.481361e-11 -1 36 73)" opacity="0.4" fill="#29B159" width="11" height="5"/>
		
			<rect id="XMLID_68_" x="12.5" y="40" transform="matrix(-1 -4.481361e-11 4.481361e-11 -1 36 85)" opacity="0.2" fill="#29B159" width="11" height="5"/>
		
			<rect id="XMLID_60_" x="24.5" y="28" transform="matrix(-1 -4.481361e-11 4.481361e-11 -1 60 61)" opacity="0.7" fill="#29B159" width="11" height="5"/>
		
			<rect id="XMLID_59_" x="24.5" y="34" transform="matrix(-1 -4.481361e-11 4.481361e-11 -1 60 73)" opacity="0.6" fill="#29B159" width="11" height="5"/>
		
			<rect id="XMLID_58_" x="24.5" y="40" transform="matrix(-1 -4.481361e-11 4.481361e-11 -1 60 85)" opacity="0.3" fill="#29B159" width="11" height="5"/>
	</g>
	<g id="BG">
	</g>
</g>
<g id="Layer_3">
</g>
</svg>
