<?xml version="1.0" encoding="utf-8"?>
<!-- Generator: Adobe Illustrator 18.1.1, SVG Export Plug-In . SVG Version: 6.00 Build 0)  -->
<svg version="1.1" id="design" xmlns="http://www.w3.org/2000/svg" xmlns:xlink="http://www.w3.org/1999/xlink" x="0px" y="0px"
	 viewBox="0 0 60 60" enable-background="new 0 0 60 60" xml:space="preserve">
<g id="XMLID_301_">
	<path id="XMLID_304_" fill="#26AEDB" d="M23.9,37.2c0.6,0.6,1.3,1,2.1,1c0.9,0,1.6-0.4,1.6-1.1c0-0.8-0.5-1.4-2.5-1.4v-1.6
		c2,0,2.2-0.5,2.2-1.3c0-0.7-0.4-1-1.2-1c-0.7,0-1.2,0.3-1.8,0.8l-1.1-1.3c0.9-0.7,1.8-1.2,3-1.2c2,0,3.4,0.9,3.4,2.6
		c0,1-0.5,1.7-1.5,2.1v0.1c1,0.3,1.8,1.1,1.8,2.3c0,1.8-1.7,2.8-3.6,2.8c-1.5,0-2.6-0.5-3.3-1.3L23.9,37.2z"/>
	<path id="XMLID_302_" fill="#26AEDB" d="M32,38h2v-6h-2v-0.9c1-0.2,1.5-0.1,2.2-1.1H36v8h2v2h-6V38z"/>
</g>
<rect id="XMLID_91_" x="16" y="27" fill="none" width="28" height="17"/>
<path id="XMLID_343_" fill="#26AEDB" d="M15,19v26h30V25.7L39.1,19H15z M44,44H16V27h28V44z"/>
<g id="BG">
</g>
</svg>
