<?xml version="1.0" encoding="utf-8"?>
<!-- Generator: Adobe Illustrator 18.1.1, SVG Export Plug-In . SVG Version: 6.00 Build 0)  -->
<svg version="1.1" id="design" xmlns="http://www.w3.org/2000/svg" xmlns:xlink="http://www.w3.org/1999/xlink" x="0px" y="0px"
	 viewBox="0 0 60 60" enable-background="new 0 0 60 60" xml:space="preserve">
<g id="XMLID_333_">
	<path fill="none" stroke="#1C75BC" stroke-width="0.5" stroke-miterlimit="10" d="M35.3,27.4"/>
</g>
<g id="XMLID_120_">
	<polygon id="XMLID_4_" fill="#26AEDB" points="52.8,38.7 50.9,30.4 48.3,29 46.1,34.8 43.5,29.9 40.6,32.6 38.7,23.7 36.3,32.5 
		34.1,27.2 31.4,32.7 28.6,26.1 27,26 25.1,29.3 22.7,27.2 20,28.1 17.4,31.1 15.2,24.4 13,28.3 10.1,23.2 10.5,22.9 13,27.3 
		15.4,23.2 17.6,30.1 19.7,27.7 22.8,26.6 24.9,28.6 26.8,25.5 29,25.6 31.5,31.5 34.2,26 36.2,31 38.7,21.5 40.9,31.7 43.7,29.1 
		46,33.6 48,28.3 51.3,30.1 52.9,36.9 54.5,32.4 55,32.5 	"/>
</g>
<g id="XMLID_122_">
	<polygon id="XMLID_3_" fill="#EF791E" points="12.1,41.7 9.8,37.9 7.2,40.4 5.2,32.6 3.2,32.9 3.1,32.4 5.5,32 7.5,39.4 9.9,37.1 
		12.1,40.8 13.8,37.6 16.2,33.8 18.5,35.2 20.5,39.6 22.8,33.9 25.4,35.9 27.3,33.3 28.8,38.2 31.5,15.4 33.7,25.3 35.9,24.7 
		38.4,27.8 40.3,23.4 42.6,26.7 44.4,21.4 47.1,17.6 49.5,21.7 51.1,14.5 51.6,14.6 49.7,23.1 47.1,18.5 44.8,21.7 42.7,27.8 
		40.4,24.4 38.6,28.7 35.7,25.3 33.4,25.9 31.6,18.4 29,40.7 27.1,34.4 25.5,36.6 23,34.7 20.5,40.9 18.1,35.6 16.3,34.5 14.3,37.8 
			"/>
</g>
<g id="BG">
</g>
</svg>
