<?xml version="1.0" encoding="utf-8"?>
<!-- Generator: Adobe Illustrator 19.1.0, SVG Export Plug-In . SVG Version: 6.00 Build 0)  -->
<svg version="1.1" id="design" xmlns="http://www.w3.org/2000/svg" xmlns:xlink="http://www.w3.org/1999/xlink" x="0px" y="0px"
	 viewBox="0 0 60 60" enable-background="new 0 0 60 60" xml:space="preserve">
<path id="XMLID_1426_" opacity="0.6" fill="#28B058" d="M50.4,26.4c-0.2-1.4-0.6-2.7-1.1-3.9c-3.4-8.8-12.7-14.2-22-12.9L31,28.9
	L50.4,26.4z"/>
<path id="XMLID_685_" opacity="0.3" fill="#28B058" d="M50.7,28.5l-18.8,2.4l5.9,9.6l4,6.6c2.5-1.7,4.6-4,6.1-6.6
	C50,36.9,51,32.8,50.7,28.5z"/>
<path id="XMLID_701_" opacity="0.9" fill="#28B058" d="M35.3,40.5l-6.2-10.1L25.3,10c-1,0.2-1.9,0.5-2.7,0.8
	c-1.6,0.6-3.2,1.5-4.5,2.5c-3,2.1-5.3,5-6.9,8.5C9,26.8,8.9,32.4,10.9,37.5c0.4,1,0.9,2,1.5,2.9c1.5,2.5,3.4,4.6,5.7,6.3
	c1.2,0.8,2.4,1.6,3.8,2.2c5.1,2.2,10.7,2.3,15.8,0.3c0.8-0.3,1.5-0.7,2.4-1.1L35.3,40.5z"/>
<g id="BG">
</g>
</svg>
