<?xml version="1.0" encoding="utf-8"?>
<!-- Generator: Adobe Illustrator 19.1.0, SVG Export Plug-In . SVG Version: 6.00 Build 0)  -->
<svg version="1.1" id="design" xmlns="http://www.w3.org/2000/svg" xmlns:xlink="http://www.w3.org/1999/xlink" x="0px" y="0px"
	 viewBox="0 0 60 60" enable-background="new 0 0 60 60" xml:space="preserve">
<polygon id="XMLID_2019_" opacity="0.3" fill="#28B058" points="25,26 27.4,22.1 25,18 20.1,18 17.7,21.9 20.2,26 "/>
<polygon id="XMLID_2021_" opacity="0.4" fill="#28B058" points="17.2,22 12.4,22 9.9,26.5 12.4,31 17.3,31 19.7,26.6 "/>
<polygon id="XMLID_2023_" opacity="0.6" fill="#28B058" points="27.5,31 25,27 20.2,27 17.7,30.9 20.2,35 25,35 "/>
<polygon id="XMLID_2024_" opacity="0.2" fill="#28B058" points="17.2,31 12.4,31 10,35.5 12.4,40 17.3,40 19.7,35.6 "/>
<polygon id="XMLID_2025_" opacity="0.4" fill="#28B058" points="17.8,39.9 20.3,44 25,44 27.4,40 25,36 20.2,36 "/>
<polygon id="XMLID_2026_" opacity="0.1" fill="#28B058" points="17.3,40 12.4,40 10,44.5 12.4,49 17.3,49 19.8,44.6 "/>
<polygon id="XMLID_2027_" opacity="0.3" fill="#28B058" points="20.2,45 17.8,49 20.2,53 25.1,53 27.5,49.1 25,45 "/>
<polygon id="XMLID_2028_" opacity="0.1" fill="#28B058" points="48.3,31 50.8,26.5 48.3,22 43.4,22 41,26.5 43.4,31 "/>
<polygon id="XMLID_2029_" opacity="0.6" fill="#28B058" points="33.2,22 35.7,26 40.6,26 43,21.9 40.6,18 35.6,18 "/>
<polygon id="XMLID_2030_" fill="#28B058" points="25.5,27 27.9,31 32.7,31 35.2,26.9 32.8,23 27.9,23 "/>
<polygon id="XMLID_2031_" opacity="0.8" fill="#28B058" points="33.2,31.1 35.6,35 40.5,35 43,31 40.5,27 35.7,27 "/>
<polygon id="XMLID_2032_" opacity="0.2" fill="#28B058" points="40.6,17 43,13.1 40.5,9 35.6,9 33.2,13.1 35.6,17 "/>
<polygon id="XMLID_2033_" opacity="0.5" fill="#28B058" points="32.8,22 35.2,18 32.8,14 27.9,14 25.4,18 27.9,22 "/>
<polygon id="XMLID_2034_" opacity="0.5" fill="#28B058" points="25.5,35.5 28,40 32.7,40 35.2,35.4 32.8,31 27.9,31 "/>
<polygon id="XMLID_2035_" opacity="0.2" fill="#28B058" points="35.6,44 40.5,44 43,40 40.5,36 35.7,36 33.2,40.1 "/>
<polygon id="XMLID_2036_" opacity="0.7" fill="#28B058" points="28,49 32.8,49 35.2,44.5 32.8,40 28,40 25.5,44.5 "/>
<g id="BG">
</g>
</svg>
