<?xml version="1.0" encoding="utf-8"?>
<!-- Generator: Adobe Illustrator 19.1.0, SVG Export Plug-In . SVG Version: 6.00 Build 0)  -->
<svg version="1.1" id="design" xmlns="http://www.w3.org/2000/svg" xmlns:xlink="http://www.w3.org/1999/xlink" x="0px" y="0px"
	 viewBox="0 0 60 60" enable-background="new 0 0 60 60" xml:space="preserve">
<rect id="XMLID_2626_" x="15" y="28" opacity="0.9" fill="#28B058" width="6" height="17"/>
<rect id="XMLID_2625_" x="23" y="17" opacity="0.9" fill="#28B058" width="6" height="28"/>
<rect id="XMLID_2624_" x="31" y="35" opacity="0.9" fill="#28B058" width="6" height="10"/>
<rect id="XMLID_2623_" x="39" y="23" opacity="0.9" fill="#28B058" width="6" height="22"/>
<g id="XMLID_1315_">
	<g id="XMLID_1316_">
		<polygon id="XMLID_5_" fill="#EF791E" points="14.3,37.1 12.9,35.7 27.6,20.5 38.1,31.1 45.6,25.3 46.9,26.9 38,33.7 27.6,23.4 		
			"/>
		<path id="XMLID_709_" fill="#FFFFFF" d="M14.3,37.4l-1.8-1.7l15.1-15.5l10.6,10.6l7.5-5.8l1.5,2l-9.3,7.2L27.6,23.7L14.3,37.4z
			 M13.2,35.7l1.1,1L27.6,23L38,33.4l8.5-6.6l-0.9-1.2l-7.5,5.8L27.6,20.9L13.2,35.7z"/>
	</g>
</g>
<g id="BG">
</g>
</svg>
