<?xml version="1.0" encoding="utf-8"?>
<!-- Generator: Adobe Illustrator 18.1.1, SVG Export Plug-In . SVG Version: 6.00 Build 0)  -->
<svg version="1.1" id="design" xmlns="http://www.w3.org/2000/svg" xmlns:xlink="http://www.w3.org/1999/xlink" x="0px" y="0px"
	 viewBox="0 0 60 60" enable-background="new 0 0 60 60" xml:space="preserve">
<g id="XMLID_811_">
	<rect id="XMLID_812_" x="18" y="32" fill="#26AEDB" width="1" height="7"/>
</g>
<g id="XMLID_809_">
	<rect id="XMLID_810_" x="18" y="16" fill="#26AEDB" width="1" height="5"/>
</g>
<rect id="XMLID_807_" x="16" y="39" fill="#26AEDB" width="5" height="1"/>
<rect id="XMLID_806_" x="16" y="15" fill="#26AEDB" width="5" height="1"/>
<rect id="XMLID_805_" x="15" y="21" fill="#26AEDB" width="1" height="12"/>
<rect id="XMLID_802_" x="21" y="21" fill="#26AEDB" width="1" height="12"/>
<rect id="XMLID_801_" x="15" y="20" fill="#26AEDB" width="7" height="1"/>
<rect id="XMLID_800_" x="15" y="32" fill="#26AEDB" width="7" height="1"/>
<rect id="XMLID_799_" x="15" y="28" fill="#26AEDB" width="7" height="1"/>
<g id="XMLID_349_">
	<rect id="XMLID_351_" x="29" y="39" fill="#26AEDB" width="1" height="7"/>
</g>
<g id="XMLID_248_">
	<rect id="XMLID_344_" x="29" y="21" fill="#26AEDB" width="1" height="3"/>
</g>
<rect id="XMLID_247_" x="27" y="46" fill="#26AEDB" width="5" height="1"/>
<rect id="XMLID_245_" x="27" y="20" fill="#26AEDB" width="5" height="1"/>
<rect id="XMLID_238_" x="26" y="23" fill="#26AEDB" width="1" height="17"/>
<rect id="XMLID_228_" x="32" y="23" fill="#26AEDB" width="1" height="17"/>
<rect id="XMLID_227_" x="26" y="23" fill="#26AEDB" width="7" height="1"/>
<rect id="XMLID_226_" x="26" y="39" fill="#26AEDB" width="7" height="1"/>
<rect id="XMLID_207_" x="26" y="33" fill="#26AEDB" width="7" height="1"/>
<g id="XMLID_627_">
	<rect id="XMLID_648_" x="40" y="37" fill="#26AEDB" width="1" height="8"/>
</g>
<g id="XMLID_412_">
	<rect id="XMLID_564_" x="40" y="12" fill="#26AEDB" width="1" height="7"/>
</g>
<rect id="XMLID_409_" x="38" y="44" fill="#26AEDB" width="5" height="1"/>
<rect id="XMLID_408_" x="38" y="12" fill="#26AEDB" width="5" height="1"/>
<rect id="XMLID_396_" x="37" y="18" fill="#26AEDB" width="1" height="18"/>
<rect id="XMLID_357_" x="43" y="18" fill="#26AEDB" width="1" height="18"/>
<rect id="XMLID_354_" x="37" y="18" fill="#26AEDB" width="7" height="1"/>
<rect id="XMLID_353_" x="37" y="36" fill="#26AEDB" width="7" height="1"/>
<rect id="XMLID_352_" x="37" y="28" fill="#26AEDB" width="7" height="1"/>
<g id="BG">
</g>
</svg>
