<?xml version="1.0" encoding="utf-8"?>
<!-- Generator: Adobe Illustrator 18.1.1, SVG Export Plug-In . SVG Version: 6.00 Build 0)  -->
<svg version="1.1" id="design" xmlns="http://www.w3.org/2000/svg" xmlns:xlink="http://www.w3.org/1999/xlink" x="0px" y="0px"
	 viewBox="0 0 60 60" enable-background="new 0 0 60 60" xml:space="preserve">
<g id="XMLID_1031_">
	<g id="XMLID_1072_">
		<polygon id="XMLID_1075_" fill="#BCBEC0" points="31.6,40.8 31.7,39 30.7,40.9 		"/>
		<path id="XMLID_1074_" fill="#BCBEC0" d="M32,34.9l-1-0.3l-0.2,0l0-0.1L29,31.1l-1.8-0.3l-1.7-0.2l0,0l-0.3-0.5L24,30.2l-0.7,0.2
			l-1.8,2.3l1.1,2.9l0.1,0.1c0.5,0,2.8,0.3,2.9,0.4c0,0,0.1,0.1,0.3,1.8c0.1,0.7,0.1,1.7,0.1,1.8c0,0.1,0.6,1.9,1,3.1l1.6-0.4
			l1.5-2.5l0.1-2.1l0,0l1.4-2.2L32,34.9z"/>
	</g>
	<g id="XMLID_1065_">
		<polygon id="XMLID_1071_" fill="#BCBEC0" points="24.5,27.3 24,26.1 23.6,26.2 23.5,26.9 23.3,27.4 23.9,27.7 		"/>
		<path id="XMLID_1067_" fill="#BCBEC0" d="M28.7,28.1l1.4,0.7l1.8-1.9l-2.3-2.5l-0.8,0.2l0,0l-1.7-0.4L25.3,26l0.3,0.8l-1.8,1.6
			l-0.9,0.7l0.5,1.1l0.5-0.1l1.1-1.1l1,0.9V30l0.6-0.4l-0.2-0.9l1,1.1l1.8,0.1l0.4-0.6l-1.5-0.1L28.7,28.1L28.7,28.1z M27.7,26.6
			l-2,0.5l0.7-0.8l0.2-0.7l0,0l0.9-0.5L27.7,26.6L27.7,26.6z"/>
	</g>
	<g id="XMLID_1036_">
		<path id="XMLID_1043_" fill="#BCBEC0" d="M45.6,38.1c-0.2,0.1-1.4,0.2-2.1,0.3l-2.9,1.7c-0.1,0.8-0.3,1.8-0.3,2.1
			c0.4-0.1,1.7-0.2,2.8-0.2h0l0,0l1.4,1l2.4-2C46.5,39.9,45.8,38.3,45.6,38.1z"/>
		<path id="XMLID_1041_" fill="#BCBEC0" d="M46.7,37.1l-1.2-0.7c-0.3,0-1.1,0.2-1.4,0.2l1.4,0.8L46.7,37.1z"/>
		<polygon id="XMLID_1039_" fill="#BCBEC0" points="41.9,37.1 42.5,36.5 42.3,35.5 42.3,35.5 42.3,35.3 42.1,35.5 42.2,35.5 
			41.2,36.7 		"/>
		<polygon id="XMLID_1038_" fill="#BCBEC0" points="42.3,38 40.4,37 39,35.9 39,36.3 40.6,37.6 		"/>
		<polygon id="XMLID_1037_" fill="#BCBEC0" points="43.1,36.3 42.6,37.2 43.4,37.5 		"/>
	</g>
	<path id="XMLID_1035_" fill="#BCBEC0" d="M45.4,26.2c0.8-0.6,1.2-0.8,1.3-0.9c-0.8-0.1-4.5-0.7-6.5-1.1l-0.8-0.1l-4.2-0.8l-5.4,1.2
		l2.3,2.5l-2,2.1l-0.1,0.2l-0.6,1l-0.3,0.7l1.7,3.4l0.1,0l1.8-1.1l0.4-1.1l1.8,0.5l0,0l1.3,2.6l0.3-1.5l0,0l1.6-1.3l0,0.1l1.3,2.5
		l0.2,0.1l0.1-0.1h0.3l0.6-0.3l0.1-1.1l0,0l1.5-1.5l-0.4-2l0,0l1.7-1.9l-1.5-1.1l0.4-1l1.5,0.2l0,0l0.9,0.9l0.4,0.2L45.4,26.2
		L45.4,26.2z"/>
	<path id="XMLID_1034_" fill="#BCBEC0" d="M19.5,35.9l-0.8-0.4l-2.2-1.2l-1.3,0.6l-0.2,0.6l0,0.1l-0.3,2.1l1.6,2.5l0.9,5l1.4,0.9
		l-0.5-1.5l0,0c0.7-1.3,0.8-1.4,0.8-1.4c0.2-0.3,1.3-1.8,2-2.9l1-2.4L19.5,35.9z"/>
	<path id="XMLID_1033_" fill="#BCBEC0" d="M19.3,23L18,23.6l-3,0.3l-0.8,0.5L13.3,25h0c-0.9,0-3-0.5-3.1-0.6c-0.3,0.1-1.9,1-3.1,1.7
		l0.1,0.6l2.8-0.5l0,0c0.2,1.2,0.2,1.8,0.1,1.8c-0.1,0.1-0.4,1.2-0.6,2.2l1.6,3l1.6,0.6l1.6,0.9l0.6,0.4l0.1-0.3l-0.7-1.1l-0.6-0.9
		l-1.1,0.4l-0.4-1.4l0,0l1.2-0.6l0,0l0.8,0.4L15,32l0-0.9l0,0l1-1.1l1.9-1.2l1.9-1.3L19.4,26h-1.5l-1.3,0.9l-1-0.7l2.4-1.4l0.9,0.2
		h0.8l0.5-0.5l-1.2-0.7l1.5-0.5l1.2,0.8l0,0L21.5,26l0.6,0.1l0.5-0.7l0,0l2.5-0.6l1.4-1.8H19.3z"/>
</g>
<polygon id="XMLID_790_" opacity="0.8" fill="#26AEDB" stroke="#FFFFFF" stroke-width="0.5" stroke-miterlimit="10" points="
	45.8,37.4 40.8,37.8 38,33.7 40.1,29.1 45.1,28.7 48,32.9 "/>
<polygon id="XMLID_121_" opacity="0.2" fill="#26AEDB" stroke="#FFFFFF" stroke-width="0.5" stroke-miterlimit="10" points="
	52.3,23.8 47.3,24.2 44.5,20.1 46.6,15.6 51.6,15.2 54.5,19.3 "/>
<polygon id="XMLID_315_" opacity="0.6" fill="#26AEDB" stroke="#FFFFFF" stroke-width="0.5" stroke-miterlimit="10" points="
	53,32.5 48,32.9 45.1,28.8 47.3,24.2 52.3,23.8 55.1,28 "/>
<polygon id="XMLID_323_" opacity="0.4" fill="#26AEDB" stroke="#FFFFFF" stroke-width="0.5" stroke-miterlimit="10" points="
	45.1,28.7 40.1,29.1 37.3,25 39.5,20.5 44.5,20.1 47.3,24.2 "/>
<polygon id="XMLID_413_" fill="none" stroke="#FFFFFF" stroke-miterlimit="10" points="45.8,37.4 40.8,37.8 38,33.7 40.1,29.1 
	45.1,28.7 48,32.9 "/>
<polygon id="XMLID_411_" fill="none" stroke="#FFFFFF" stroke-miterlimit="10" points="52.3,23.8 47.3,24.2 44.5,20.1 46.6,15.6 
	51.6,15.2 54.5,19.3 "/>
<polygon id="XMLID_410_" fill="none" stroke="#FFFFFF" stroke-miterlimit="10" points="53,32.5 48,32.9 45.1,28.8 47.3,24.2 
	52.3,23.8 55.1,28 "/>
<polygon id="XMLID_407_" fill="none" stroke="#FFFFFF" stroke-miterlimit="10" points="45.1,28.7 40.1,29.1 37.3,25 39.5,20.5 
	44.5,20.1 47.3,24.2 "/>
<g id="BG">
</g>
</svg>
