<?xml version="1.0" encoding="utf-8"?>
<!-- Generator: Adobe Illustrator 19.1.0, SVG Export Plug-In . SVG Version: 6.00 Build 0)  -->
<svg version="1.1" id="design" xmlns="http://www.w3.org/2000/svg" xmlns:xlink="http://www.w3.org/1999/xlink" x="0px" y="0px"
	 viewBox="0 0 60 60" enable-background="new 0 0 60 60" xml:space="preserve">
<g id="XMLID_259_">
	<path id="XMLID_197_" fill="#28B058" d="M52.1,40.8c-0.5,0-1,0-1.5,0c-3.9,0-9.3-0.1-12.5-6.2C34.9,28.7,32.4,24,30.9,24h-0.1
		c-1.5,0-4,4.7-7.1,10.6c-3.2,6.1-8.6,6.1-12.5,6.2c-0.5,0-1,0-1.5,0l0-1c0.5,0,1,0,1.6,0c3.9,0,8.7-0.1,11.6-5.6
		c3.8-7.2,5.9-11.1,8-11.1h0.1c2.1,0,4.2,4,8,11.1c3,5.6,7.8,5.6,11.6,5.6c0.5,0,1.1,0,1.6,0L52.1,40.8z"/>
</g>
<g id="BG">
</g>
</svg>
