<svg xmlns="http://www.w3.org/2000/svg" viewBox="0 0 164 28"><g fill="#CCC"><path d="M1.6 16.5v2.3H.5V9.2h1l.1.8c.6-.5 1.4-1 2.2-1 1.8 0 2.7 1.4 2.7 3.5 0 2.3-1.4 3.7-2.9 3.7-.6 0-1.3-.3-1.9-.8l-.1 1.1zm1.7-1.3c1.1 0 1.9-1 1.9-2.7 0-1.5-.5-2.5-1.8-2.5-.6 0-1.1.3-1.8.9v3.6c.6.5 1.2.7 1.7.7zM10.9 9c1.7 0 3.2 1.3 3.2 3.6s-1.5 3.6-3.2 3.6c-1.7 0-3.2-1.3-3.2-3.6S9.2 9 10.9 9zm0 6.2c1.2 0 2-1.1 2-2.6 0-1.6-.8-2.6-2-2.6s-2 1.1-2 2.6.8 2.6 2 2.6zM15 9.2h1.2l1 3.9c.2.6.3 1.3.4 1.9h.1c.2-.6.3-1.3.5-1.9l1.1-3.9h1.1l1.1 3.9c.2.6.3 1.3.5 1.9h.1c.2-.6.3-1.2.4-1.9l1-3.9h1.1L22.5 16h-1.4l-1-3.7c-.2-.6-.3-1.3-.5-2h-.1c-.2.7-.3 1.3-.5 2l-1 3.6h-1.3L15 9.2zM28.3 9C30 9 31 10.2 31 12.2v.6h-4.6c.1 1.5 1 2.4 2.3 2.4.6 0 1.2-.2 1.7-.5l.4.8c-.6.4-1.3.7-2.2.7-1.8 0-3.3-1.3-3.3-3.6 0-2.2 1.5-3.6 3-3.6zm1.7 3.1c0-1.4-.6-2.2-1.7-2.2-1 0-1.8.8-2 2.2H30zM32.7 9.2h1l.1 1.2C34.3 9.5 35 9 35.7 9c.3 0 .5 0 .7.1l-.2 1c-.2 0-.3-.1-.6-.1-.6 0-1.3.4-1.7 1.6V16h-1.1V9.2zM40 9c1.7 0 2.7 1.2 2.7 3.2v.6h-4.6c.1 1.5 1 2.4 2.3 2.4.6 0 1.2-.2 1.7-.5l.4.8c-.6.4-1.3.7-2.2.7-1.8 0-3.3-1.3-3.3-3.6-.1-2.2 1.4-3.6 3-3.6zm1.7 3.1c0-1.4-.6-2.2-1.7-2.2-1 0-1.8.8-2 2.2h3.7zM46.8 9c.8 0 1.3.3 1.9.8l-.1-1.2V6h1.2v10h-1l-.1-.8c-.5.5-1.3 1-2.1 1-1.7 0-2.8-1.3-2.8-3.6.1-2.2 1.5-3.6 3-3.6zm.1 6.2c.6 0 1.2-.3 1.7-.9v-3.6c-.5-.5-1-.7-1.6-.7-1.1 0-2 1.1-2 2.6.1 1.6.8 2.6 1.9 2.6zM55 6h1.1V9.9c.6-.5 1.4-1 2.1-1 1.8 0 2.7 1.4 2.7 3.5 0 2.3-1.4 3.7-2.9 3.7-.6 0-1.3-.3-1.9-.8l-.2.7H55V6zm2.8 9.2c1.1 0 1.9-1 1.9-2.7 0-1.5-.5-2.5-1.8-2.5-.6 0-1.2.3-1.8.9v3.6c.6.5 1.2.7 1.7.7zM62.7 17.9c.8 0 1.3-.6 1.5-1.5l.2-.5-2.7-6.8h1.2l1.4 3.8c.2.6.4 1.3.7 1.9.2-.6.4-1.3.6-1.9l1.2-3.8h1.1l-2.6 7.4c-.5 1.3-1.2 2.4-2.5 2.4-.3 0-.6-.1-.8-.1l.2-.9h.5z"/></g><path fill="#CCC" d="M103.7 6.2c-.5-1.1-1.6-1.8-2.9-1.8-1.9 0-3.9.9-3.9 6.5 0 4.4 1.2 6.8 4.2 6.8 1.8 0 2.5-1.1 2.8-1.9v1.6h2.4V.5h-2.5v5.7zm-2.1 9.5c-1.8 0-2.1-1.8-2.1-4.7 0-3.4.5-4.6 2-4.6 2 0 2.3 1.7 2.3 4.8 0 2.7-.4 4.5-2.2 4.5zM117.2 14.7V7.5c0-2.2-1.8-3.1-4-3.1-3.4 0-4.5 1.5-4.5 4.2h2.4c0-1.2.2-2.4 1.9-2.4 1.3 0 1.7.7 1.7 1.9 0 1.1-.6 1.4-1.5 1.6l-2 .5c-1.7.6-2.9 1.2-2.9 4 0 2.4 1.3 3.6 3.3 3.6 1.5 0 2.5-.6 3.2-1.9.1 1.2 1 1.7 2.1 1.7.5 0 .9-.2 1.3-.3v-1.7c-.1 0-.3.1-.4.1-.3-.1-.6-.5-.6-1zm-2.4-1.9c0 1.9-.8 3-2.3 3-1.1 0-1.6-.8-1.6-1.9 0-.9.3-1.7 1-2.1.8-.4 2.2-.7 2.8-1.2v2.2zM123.2 1.1h-2.5v3.6H119v1.9h1.7v7.9c0 2.6.8 3.1 2.6 3.1.8 0 1.5-.1 2.1-.2v-1.9c-.2 0-.5.1-.9.1-.9 0-1.2-.4-1.2-1.3V6.6h2.1V4.7h-2.1V1.1zM135.2 14.7V7.5c0-2.2-1.8-3.1-4-3.1-3.4 0-4.5 1.5-4.5 4.2h2.4c0-1.2.2-2.4 1.9-2.4 1.3 0 1.7.7 1.7 1.9 0 1.1-.6 1.4-1.5 1.6l-2 .5c-1.7.6-2.9 1.2-2.9 4 0 2.4 1.3 3.6 3.3 3.6 1.5 0 2.5-.6 3.2-1.9.1 1.2 1 1.7 2.1 1.7.5 0 .9-.2 1.3-.3v-1.7c-.1 0-.3.1-.4.1-.3-.1-.6-.5-.6-1zm-2.4-1.9c0 1.9-.8 3-2.3 3-1.1 0-1.6-.8-1.6-1.9 0-.9.3-1.7 1-2.1.8-.4 2.2-.7 2.8-1.2v2.2zM138.1 4.7h2.5v12.7h-2.5zM138.1.3h2.5v2.5h-2.5zM152.9 4.6l-3 .1-3.8 5.3h-.1V.5h-2.5v16.9h2.5v-4.1l1.5-1.7 3.1 5.8h2.8l-4.3-7.8M161 4.7v8.9c0 1.4-1 2.1-2.1 2.1s-1.7-.5-1.7-1.9V4.7h-2.5v8.9c0 3.3 1.3 4.2 3.2 4.2 1.4 0 2.6-.7 3.3-1.8h.1v1.5h2.4V4.7H161zM86.8 4.2l-19 23.4s.1.3.4.2c.5-.2 1.9-1.8 8.5-8.1.7-.6 2-.7 2.8-.7h2.9v-1.5h3.7c5 0 7.8-4.8 7-10.1-.4-2.9.4-4.2.4-4.2l2-1.8-2.2.6c-1.9-3.1-6.5-2-6.5 2.2zm3.9-.2c-.5 0-.9-.4-.9-.9s.4-.9.9-.9.9.4.9.9-.4.9-.9.9z"/><path fill="#CCC" d="M83.9 18.9h11.4v1.8H83.9z"/></svg>