<svg xmlns="http://www.w3.org/2000/svg" viewBox="0 0 80 80"><g fill="#FFC425"><circle cx="30.6" cy="35.7" r=".9"/><path d="M41.5 39c-1.5 0-2 1.2-2 4.6 0 2.9.4 4.7 2.2 4.7 1.8 0 2.2-1.8 2.2-4.5 0-3-.4-4.8-2.4-4.8z"/><path d="M0 0v80h80V0H0zm35.3 53.5H23.8v-1.9h11.5v1.9zm-1.9-17.8s-.8 1.4-.4 4.3c.8 5.4-2 10.2-7.1 10.2h-3.7v1.5h-3s-2.1.1-2.8.7c-6.6 6.3-8.1 7.9-8.5 8.2-.3.2-.4-.2-.4-.2l19.1-23.6c0-4.2 4.6-5.4 6.5-2.2l2.2-.7-1.9 1.8zm12.9 14.4h-2.4v-1.6c-.3.8-1 1.9-2.8 1.9-3 0-4.2-2.5-4.2-6.9 0-5.7 2-6.6 4-6.6 1.4 0 2.4.7 2.9 1.8V33h2.6v17.1zm6.3.3c-3.2 0-4.2-1.5-4.2-4V46h2.3v.4c0 1.5.5 2.3 2 2.3 1.4 0 2.1-.7 2.1-1.9 0-1-.5-1.6-1.4-1.9l-2.1-.7c-1.9-.7-2.7-1.6-2.7-3.7 0-2.4 1.7-3.5 4.4-3.5 3.3 0 4 1.9 4 3.5v.5h-2.4v-.3c0-1-.4-2-1.7-2-1 0-1.8.5-1.8 1.7 0 1 .5 1.4 1.8 1.9l1.6.6c1.9.6 2.8 1.7 2.8 3.7-.1 2.7-2.1 3.8-4.7 3.8zm10.4 0c-3.2 0-4.2-1.5-4.2-4V46h2.3v.4c0 1.5.5 2.3 2 2.3 1.4 0 2.1-.7 2.1-1.9 0-1-.5-1.6-1.4-1.9l-2.1-.7c-1.9-.7-2.7-1.6-2.7-3.7 0-2.4 1.7-3.5 4.4-3.5 3.3 0 4 1.9 4 3.5v.5H65v-.3c0-1-.4-2-1.7-2-1 0-1.8.5-1.8 1.7 0 1 .5 1.4 1.8 1.9l1.6.6c1.9.6 2.8 1.7 2.8 3.7-.1 2.7-2.1 3.8-4.7 3.8z"/></g></svg>