<?xml version="1.0" encoding="utf-8"?>
<!-- Generator: Adobe Illustrator 24.0.3, SVG Export Plug-In . SVG Version: 6.00 Build 0)  -->
<svg version="1.1" id="Calque_1" xmlns="http://www.w3.org/2000/svg" xmlns:xlink="http://www.w3.org/1999/xlink" x="0px" y="0px"
	 viewBox="0 0 50.31 42.98" style="enable-background:new 0 0 50.31 42.98;" xml:space="preserve">
<style type="text/css">
	.st0{opacity:0.31;}
	.st1{fill:url(#SVGID_1_);}
	.st2{fill:url(#SVGID_2_);}
	.st3{fill:url(#SVGID_3_);}
	.st4{fill:url(#SVGID_4_);}
	.st5{fill:url(#SVGID_5_);}
	.st6{fill:url(#SVGID_6_);}
	.st7{fill:url(#SVGID_7_);}
	.st8{fill:url(#SVGID_8_);}
	.st9{fill:url(#SVGID_9_);}
	.st10{fill:url(#SVGID_10_);}
	.st11{fill:url(#SVGID_11_);}
	.st12{fill:url(#SVGID_12_);}
	.st13{fill:url(#SVGID_13_);}
	.st14{fill:url(#SVGID_14_);}
	.st15{fill:url(#SVGID_15_);}
	.st16{fill:url(#SVGID_16_);}
	.st17{fill:url(#SVGID_17_);}
	.st18{fill:url(#SVGID_18_);}
	.st19{fill:url(#SVGID_19_);}
	.st20{fill:url(#SVGID_20_);}
	.st21{fill:url(#SVGID_21_);}
	.st22{fill:url(#SVGID_22_);}
	.st23{fill:url(#SVGID_23_);}
	.st24{fill:url(#SVGID_24_);}
	.st25{fill:url(#SVGID_25_);}
	.st26{fill:url(#SVGID_26_);}
	.st27{fill:url(#SVGID_27_);}
	.st28{fill:url(#SVGID_28_);fill-opacity:0.28;}
	.st29{fill:none;stroke:#BABABA;stroke-width:0.5;stroke-linecap:round;stroke-miterlimit:10;}
	.st30{fill:none;stroke:#BABABA;stroke-width:0.5;stroke-miterlimit:10;}
	.st31{fill:none;stroke:#BABABA;stroke-width:0.5;stroke-miterlimit:10;stroke-dasharray:0.6315,0.6315;}
	.st32{fill:none;stroke:#BABABA;stroke-width:0.5;stroke-miterlimit:10;stroke-dasharray:0.7238,0.7238;}
	.st33{fill:none;stroke:#BABABA;stroke-width:0.5;stroke-miterlimit:10;stroke-dasharray:0.7214,0.7214;}
	.st34{fill:none;stroke:#BABABA;stroke-width:0.5;stroke-miterlimit:10;stroke-dasharray:0.75;}
	.st35{fill:url(#SVGID_29_);fill-opacity:0.28;stroke:#D3D3D3;stroke-width:0.5;stroke-miterlimit:10;}
	.st36{fill:#FFFFFF;stroke:#D3D3D3;stroke-width:0.25;stroke-miterlimit:10;}
	.st37{fill:#D8D8D8;stroke:#D3D3D3;stroke-width:0.25;stroke-miterlimit:10;}
	.st38{fill:#FFFFFF;stroke:#D3D3D3;stroke-width:0.5;stroke-miterlimit:10;}
	.st39{fill:#D3D3D3;stroke:#D3D3D3;stroke-width:0.25;stroke-miterlimit:10;}
	.st40{fill:#FFFFFF;}
	.st41{fill:none;stroke:#BABABA;stroke-width:0.5;stroke-miterlimit:10;stroke-dasharray:0.6571,0.6571;}
	.st42{fill:#FFFFFF;stroke:#BABABA;stroke-width:0.5;stroke-miterlimit:10;stroke-dasharray:0.75;}
	.st43{fill:#BBBBBB;}
</style>
<g>
	
		<linearGradient id="SVGID_1_" gradientUnits="userSpaceOnUse" x1="9.9269" y1="26.4096" x2="47.6069" y2="26.4096" gradientTransform="matrix(1 0 0 -1 0 45.2792)">
		<stop  offset="0" style="stop-color:#C4C4C4"/>
		<stop  offset="1" style="stop-color:#DAD6D6"/>
	</linearGradient>
	
		<rect x="9.93" y="2.85" style="fill:url(#SVGID_1_);fill-opacity:0.28;stroke:#D3D3D3;stroke-width:0.5;stroke-miterlimit:10;" width="37.68" height="32.04"/>
	<g>
		<rect x="7.79" y="1.21" class="st36" width="2.79" height="2.79"/>
		<path class="st37" d="M10.46,1.34v2.54H7.92V1.34H10.46 M10.71,1.09H7.67v3.04h3.04V1.09L10.71,1.09z"/>
	</g>
	<g>
		<rect x="46.58" y="1.21" class="st36" width="2.79" height="2.79"/>
		<path class="st37" d="M49.24,1.34v2.54h-2.53V1.34H49.24 M49.49,1.09h-3.04v3.04h3.04V1.09L49.49,1.09z"/>
	</g>
	<g>
		<rect x="46.58" y="33.69" class="st36" width="2.79" height="2.79"/>
		<path class="st37" d="M49.24,33.82v2.54h-2.53v-2.54H49.24 M49.49,33.57h-3.04v3.04h3.04V33.57L49.49,33.57z"/>
	</g>
	<rect x="7.22" y="34.01" class="st36" width="3.04" height="3.04"/>
	<rect x="3.15" y="8.33" class="st38" width="37.68" height="32.04"/>
	<g>
		<rect x="1.25" y="6.7" class="st36" width="2.79" height="2.79"/>
		<path class="st39" d="M3.92,6.83v2.54H1.38V6.83H3.92 M4.17,6.58H1.13v3.04h3.04V6.58L4.17,6.58z"/>
	</g>
	<g>
		<rect x="40.04" y="6.7" class="st36" width="2.79" height="2.79"/>
		<path class="st39" d="M42.7,6.83v2.54h-2.54V6.83H42.7 M42.95,6.58h-3.04v3.04h3.04V6.58L42.95,6.58z"/>
	</g>
	<g>
		<rect x="40.04" y="39.18" class="st36" width="2.79" height="2.79"/>
		<path class="st39" d="M42.7,39.3v2.54h-2.54V39.3H42.7 M42.95,39.05h-3.04v3.04h3.04V39.05L42.95,39.05z"/>
	</g>
	<g>
		<rect x="1.25" y="39.18" class="st36" width="2.79" height="2.79"/>
		<path class="st39" d="M3.92,39.3v2.54H1.38V39.3H3.92 M4.17,39.05H1.13v3.04h3.04V39.05L4.17,39.05z"/>
	</g>
	<line class="st29" x1="13.06" y1="25.25" x2="17.48" y2="25.25"/>
	<line class="st29" x1="25.83" y1="22.76" x2="31.01" y2="18.87"/>
	<line class="st29" x1="25.83" y1="27.94" x2="31.01" y2="30.53"/>
	<g>
		<rect x="6.51" y="22.57" class="st40" width="5.35" height="5.35"/>
		<g>
			<polyline class="st30" points="11.86,27.55 11.86,27.92 11.48,27.92 			"/>
			<line class="st41" x1="10.83" y1="27.92" x2="7.21" y2="27.92"/>
			<polyline class="st30" points="6.88,27.92 6.51,27.92 6.51,27.55 			"/>
			<line class="st41" x1="6.51" y1="26.89" x2="6.51" y2="23.28"/>
			<polyline class="st30" points="6.51,22.95 6.51,22.58 6.88,22.58 			"/>
			<line class="st41" x1="7.54" y1="22.58" x2="11.16" y2="22.58"/>
			<polyline class="st30" points="11.48,22.58 11.86,22.58 11.86,22.95 			"/>
			<line class="st41" x1="11.86" y1="23.61" x2="11.86" y2="27.22"/>
		</g>
	</g>
	<g>
		<rect x="32.51" y="28.59" class="st40" width="5.35" height="5.35"/>
		<g>
			<polyline class="st30" points="37.86,33.56 37.86,33.94 37.48,33.94 			"/>
			<line class="st41" x1="36.82" y1="33.94" x2="33.21" y2="33.94"/>
			<polyline class="st30" points="32.88,33.94 32.51,33.94 32.51,33.56 			"/>
			<line class="st41" x1="32.51" y1="32.91" x2="32.51" y2="29.29"/>
			<polyline class="st30" points="32.51,28.97 32.51,28.59 32.88,28.59 			"/>
			<line class="st41" x1="33.54" y1="28.59" x2="37.15" y2="28.59"/>
			<polyline class="st30" points="37.48,28.59 37.86,28.59 37.86,28.97 			"/>
			<line class="st41" x1="37.86" y1="29.62" x2="37.86" y2="33.24"/>
		</g>
	</g>
	<g>
		<rect x="32.51" y="16.19" class="st40" width="5.35" height="5.35"/>
		<g>
			<polyline class="st30" points="37.86,21.17 37.86,21.55 37.48,21.55 			"/>
			<line class="st41" x1="36.82" y1="21.55" x2="33.21" y2="21.55"/>
			<polyline class="st30" points="32.88,21.55 32.51,21.55 32.51,21.17 			"/>
			<line class="st41" x1="32.51" y1="20.51" x2="32.51" y2="16.9"/>
			<polyline class="st30" points="32.51,16.57 32.51,16.19 32.88,16.19 			"/>
			<line class="st41" x1="33.54" y1="16.19" x2="37.15" y2="16.19"/>
			<polyline class="st30" points="37.48,16.19 37.86,16.19 37.86,16.57 			"/>
			<line class="st41" x1="37.86" y1="17.23" x2="37.86" y2="20.84"/>
		</g>
	</g>
	<circle class="st42" cx="21.99" cy="25.64" r="3.07"/>
</g>
</svg>
