<?xml version="1.0" encoding="utf-8"?>
<!-- Generator: Adobe Illustrator 24.0.3, SVG Export Plug-In . SVG Version: 6.00 Build 0)  -->
<svg version="1.1" id="Calque_1" xmlns="http://www.w3.org/2000/svg" xmlns:xlink="http://www.w3.org/1999/xlink" x="0px" y="0px"
	 viewBox="0 0 88 69" style="enable-background:new 0 0 88 69;" xml:space="preserve">
<style type="text/css">
	.st0{opacity:0.31;}
	.st1{fill:url(#SVGID_1_);}
	.st2{fill:url(#SVGID_2_);}
	.st3{fill:url(#SVGID_3_);}
	.st4{fill:url(#SVGID_4_);}
	.st5{fill:url(#SVGID_5_);}
	.st6{fill:url(#SVGID_6_);}
	.st7{fill:url(#SVGID_7_);}
	.st8{fill:url(#SVGID_8_);}
	.st9{fill:url(#SVGID_9_);}
	.st10{fill:url(#SVGID_10_);}
	.st11{fill:url(#SVGID_11_);}
	.st12{fill:url(#SVGID_12_);}
	.st13{fill:url(#SVGID_13_);}
	.st14{fill:url(#SVGID_14_);}
	.st15{fill:url(#SVGID_15_);}
	.st16{fill:url(#SVGID_16_);}
	.st17{fill:url(#SVGID_17_);}
	.st18{fill:url(#SVGID_18_);}
	.st19{fill:url(#SVGID_19_);}
	.st20{fill:url(#SVGID_20_);}
	.st21{fill:url(#SVGID_21_);}
	.st22{fill:url(#SVGID_22_);}
	.st23{fill:url(#SVGID_23_);}
	.st24{fill:url(#SVGID_24_);}
	.st25{fill:url(#SVGID_25_);}
	.st26{fill:url(#SVGID_26_);}
	.st27{fill:url(#SVGID_27_);}
	.st28{fill:url(#SVGID_28_);fill-opacity:0.28;}
	.st29{fill:none;stroke:#BABABA;stroke-width:0.5;stroke-linecap:round;stroke-miterlimit:10;}
	.st30{fill:none;stroke:#BABABA;stroke-width:0.5;stroke-miterlimit:10;}
	.st31{fill:none;stroke:#BABABA;stroke-width:0.5;stroke-miterlimit:10;stroke-dasharray:0.6315,0.6315;}
	.st32{fill:none;stroke:#BABABA;stroke-width:0.5;stroke-miterlimit:10;stroke-dasharray:0.7238,0.7238;}
	.st33{fill:none;stroke:#BABABA;stroke-width:0.5;stroke-miterlimit:10;stroke-dasharray:0.7214,0.7214;}
	.st34{fill:none;stroke:#BABABA;stroke-width:0.5;stroke-miterlimit:10;stroke-dasharray:0.75;}
	.st35{fill:url(#SVGID_29_);fill-opacity:0.28;stroke:#D3D3D3;stroke-width:0.5;stroke-miterlimit:10;}
	.st36{fill:#FFFFFF;stroke:#D3D3D3;stroke-width:0.25;stroke-miterlimit:10;}
	.st37{fill:#D8D8D8;stroke:#D3D3D3;stroke-width:0.25;stroke-miterlimit:10;}
	.st38{fill:#FFFFFF;stroke:#D3D3D3;stroke-width:0.5;stroke-miterlimit:10;}
	.st39{fill:#D3D3D3;stroke:#D3D3D3;stroke-width:0.25;stroke-miterlimit:10;}
	.st40{fill:#FFFFFF;}
	.st41{fill:none;stroke:#BABABA;stroke-width:0.5;stroke-miterlimit:10;stroke-dasharray:0.6571,0.6571;}
	.st42{fill:#FFFFFF;stroke:#BABABA;stroke-width:0.5;stroke-miterlimit:10;stroke-dasharray:0.75;}
	.st43{fill:#BBBBBB;}
</style>
<g>
	<g class="st0">
		<g>
			<linearGradient id="SVGID_1_" gradientUnits="userSpaceOnUse" x1="23.993" y1="29.4109" x2="30.1007" y2="29.4109">
				<stop  offset="0" style="stop-color:#C4C4C4"/>
				<stop  offset="1" style="stop-color:#DAD6D6"/>
			</linearGradient>
			<rect x="23.99" y="26.14" class="st1" width="6.11" height="6.55"/>
			<g>
				<linearGradient id="SVGID_2_" gradientUnits="userSpaceOnUse" x1="29.6669" y1="32.459" x2="30.1007" y2="32.459">
					<stop  offset="0" style="stop-color:#C4C4C4"/>
					<stop  offset="1" style="stop-color:#DAD6D6"/>
				</linearGradient>
				<polyline class="st2" points="30.1,32.23 30.1,32.69 29.67,32.69 				"/>
				<linearGradient id="SVGID_3_" gradientUnits="userSpaceOnUse" x1="23.993" y1="32.459" x2="24.4154" y2="32.459">
					<stop  offset="0" style="stop-color:#C4C4C4"/>
					<stop  offset="1" style="stop-color:#DAD6D6"/>
				</linearGradient>
				<polyline class="st3" points="24.42,32.69 23.99,32.69 23.99,32.23 				"/>
				<linearGradient id="SVGID_4_" gradientUnits="userSpaceOnUse" x1="23.993" y1="26.375" x2="24.4154" y2="26.375">
					<stop  offset="0" style="stop-color:#C4C4C4"/>
					<stop  offset="1" style="stop-color:#DAD6D6"/>
				</linearGradient>
				<polyline class="st4" points="23.99,26.6 23.99,26.15 24.42,26.15 				"/>
				<linearGradient id="SVGID_5_" gradientUnits="userSpaceOnUse" x1="29.6669" y1="26.375" x2="30.1007" y2="26.375">
					<stop  offset="0" style="stop-color:#C4C4C4"/>
					<stop  offset="1" style="stop-color:#DAD6D6"/>
				</linearGradient>
				<polyline class="st5" points="29.67,26.15 30.1,26.15 30.1,26.6 				"/>
			</g>
		</g>
	</g>
	<g class="st0">
		<g>
			<linearGradient id="SVGID_6_" gradientUnits="userSpaceOnUse" x1="55.1067" y1="36.6906" x2="61.6681" y2="36.6906">
				<stop  offset="0" style="stop-color:#C4C4C4"/>
				<stop  offset="1" style="stop-color:#DAD6D6"/>
			</linearGradient>
			<rect x="55.11" y="33.41" class="st6" width="6.56" height="6.56"/>
			<g>
				<linearGradient id="SVGID_7_" gradientUnits="userSpaceOnUse" x1="61.202" y1="39.7383" x2="61.6681" y2="39.7383">
					<stop  offset="0" style="stop-color:#C4C4C4"/>
					<stop  offset="1" style="stop-color:#DAD6D6"/>
				</linearGradient>
				<polyline class="st7" points="61.67,39.51 61.67,39.97 61.2,39.97 				"/>
				<linearGradient id="SVGID_8_" gradientUnits="userSpaceOnUse" x1="55.1067" y1="39.7383" x2="55.5604" y2="39.7383">
					<stop  offset="0" style="stop-color:#C4C4C4"/>
					<stop  offset="1" style="stop-color:#DAD6D6"/>
				</linearGradient>
				<polyline class="st8" points="55.56,39.97 55.11,39.97 55.11,39.51 				"/>
				<linearGradient id="SVGID_9_" gradientUnits="userSpaceOnUse" x1="55.1067" y1="33.6429" x2="55.5604" y2="33.6429">
					<stop  offset="0" style="stop-color:#C4C4C4"/>
					<stop  offset="1" style="stop-color:#DAD6D6"/>
				</linearGradient>
				<polyline class="st9" points="55.11,33.88 55.11,33.41 55.56,33.41 				"/>
				<linearGradient id="SVGID_10_" gradientUnits="userSpaceOnUse" x1="61.202" y1="33.6429" x2="61.6681" y2="33.6429">
					<stop  offset="0" style="stop-color:#C4C4C4"/>
					<stop  offset="1" style="stop-color:#DAD6D6"/>
				</linearGradient>
				<polyline class="st10" points="61.2,33.41 61.67,33.41 61.67,33.88 				"/>
			</g>
		</g>
	</g>
	<g class="st0">
		<g>
			<linearGradient id="SVGID_11_" gradientUnits="userSpaceOnUse" x1="55.1067" y1="21.6894" x2="61.6681" y2="21.6894">
				<stop  offset="0" style="stop-color:#C4C4C4"/>
				<stop  offset="1" style="stop-color:#DAD6D6"/>
			</linearGradient>
			<rect x="55.11" y="18.41" class="st11" width="6.56" height="6.56"/>
			<g>
				<linearGradient id="SVGID_12_" gradientUnits="userSpaceOnUse" x1="61.202" y1="24.7494" x2="61.6681" y2="24.7494">
					<stop  offset="0" style="stop-color:#C4C4C4"/>
					<stop  offset="1" style="stop-color:#DAD6D6"/>
				</linearGradient>
				<polyline class="st12" points="61.67,24.52 61.67,24.98 61.2,24.98 				"/>
				<linearGradient id="SVGID_13_" gradientUnits="userSpaceOnUse" x1="55.1067" y1="24.7494" x2="55.5604" y2="24.7494">
					<stop  offset="0" style="stop-color:#C4C4C4"/>
					<stop  offset="1" style="stop-color:#DAD6D6"/>
				</linearGradient>
				<polyline class="st13" points="55.56,24.98 55.11,24.98 55.11,24.52 				"/>
				<linearGradient id="SVGID_14_" gradientUnits="userSpaceOnUse" x1="55.1067" y1="18.6417" x2="55.5604" y2="18.6417">
					<stop  offset="0" style="stop-color:#C4C4C4"/>
					<stop  offset="1" style="stop-color:#DAD6D6"/>
				</linearGradient>
				<polyline class="st14" points="55.11,18.87 55.11,18.41 55.56,18.41 				"/>
				<linearGradient id="SVGID_15_" gradientUnits="userSpaceOnUse" x1="61.202" y1="18.6417" x2="61.6681" y2="18.6417">
					<stop  offset="0" style="stop-color:#C4C4C4"/>
					<stop  offset="1" style="stop-color:#DAD6D6"/>
				</linearGradient>
				<polyline class="st15" points="61.2,18.41 61.67,18.41 61.67,18.87 				"/>
			</g>
		</g>
	</g>
	<linearGradient id="SVGID_16_" gradientUnits="userSpaceOnUse" x1="42.3298" y1="27.1728" x2="42.7506" y2="39.2333">
		<stop  offset="0" style="stop-color:#C4C4C4"/>
		<stop  offset="1" style="stop-color:#DAD6D6"/>
	</linearGradient>
	<circle style="fill:url(#SVGID_16_);fill-opacity:0.28;" cx="42.42" cy="29.89" r="3.77"/>
	<line class="st29" x1="31.87" y1="29.27" x2="37.14" y2="29.27"/>
	<line class="st29" x1="47.11" y1="26.3" x2="53.29" y2="21.66"/>
	<line class="st29" x1="47.11" y1="32.48" x2="53.29" y2="35.57"/>
	<g>
		<g>
			<g>
				<polyline class="st30" points="23.86,26.54 23.86,26.19 24.21,26.19 				"/>
				<line class="st31" x1="24.84" y1="26.19" x2="29.57" y2="26.19"/>
				<polyline class="st30" points="29.89,26.19 30.24,26.19 30.24,26.54 				"/>
				<line class="st31" x1="30.24" y1="27.17" x2="30.24" y2="31.91"/>
				<polyline class="st30" points="30.24,32.22 30.24,32.57 29.89,32.57 				"/>
				<line class="st31" x1="29.26" y1="32.57" x2="24.52" y2="32.57"/>
				<polyline class="st30" points="24.21,32.57 23.86,32.57 23.86,32.22 				"/>
				<line class="st31" x1="23.86" y1="31.59" x2="23.86" y2="26.86"/>
			</g>
		</g>
		<g>
			<g>
				<polyline class="st30" points="30.24,32.13 30.24,32.57 29.79,32.57 				"/>
			</g>
			<g>
				<g>
					<line class="st30" x1="29.01" y1="32.57" x2="28.66" y2="32.57"/>
					<line class="st32" x1="27.94" y1="32.57" x2="25.4" y2="32.57"/>
					<line class="st30" x1="25.04" y1="32.57" x2="24.69" y2="32.57"/>
				</g>
			</g>
			<g>
				<polyline class="st30" points="24.3,32.57 23.86,32.57 23.86,32.13 				"/>
			</g>
			<g>
				<g>
					<line class="st30" x1="23.86" y1="31.34" x2="23.86" y2="30.99"/>
					<line class="st33" x1="23.86" y1="30.27" x2="23.86" y2="27.75"/>
					<line class="st30" x1="23.86" y1="27.39" x2="23.86" y2="27.04"/>
				</g>
			</g>
			<g>
				<polyline class="st30" points="23.86,26.64 23.86,26.2 24.3,26.2 				"/>
			</g>
			<g>
				<g>
					<line class="st30" x1="25.08" y1="26.2" x2="25.43" y2="26.2"/>
					<line class="st32" x1="26.16" y1="26.2" x2="28.69" y2="26.2"/>
					<line class="st30" x1="29.05" y1="26.2" x2="29.4" y2="26.2"/>
				</g>
			</g>
			<g>
				<polyline class="st30" points="29.79,26.2 30.24,26.2 30.24,26.64 				"/>
			</g>
			<g>
				<g>
					<line class="st30" x1="30.24" y1="27.43" x2="30.24" y2="27.78"/>
					<line class="st33" x1="30.24" y1="28.5" x2="30.24" y2="31.03"/>
					<line class="st30" x1="30.24" y1="31.39" x2="30.24" y2="31.74"/>
				</g>
			</g>
		</g>
	</g>
	<g>
		<g>
			<g>
				<polyline class="st30" points="55.2,33.82 55.2,33.47 55.55,33.47 				"/>
				<line class="st31" x1="56.18" y1="33.47" x2="60.91" y2="33.47"/>
				<polyline class="st30" points="61.23,33.47 61.58,33.47 61.58,33.82 				"/>
				<line class="st31" x1="61.58" y1="34.45" x2="61.58" y2="39.19"/>
				<polyline class="st30" points="61.58,39.5 61.58,39.85 61.23,39.85 				"/>
				<line class="st31" x1="60.6" y1="39.85" x2="55.86" y2="39.85"/>
				<polyline class="st30" points="55.55,39.85 55.2,39.85 55.2,39.5 				"/>
				<line class="st31" x1="55.2" y1="38.87" x2="55.2" y2="34.13"/>
			</g>
		</g>
		<g>
			<g>
				<polyline class="st30" points="61.58,39.4 61.58,39.85 61.13,39.85 				"/>
			</g>
			<g>
				<g>
					<line class="st30" x1="60.34" y1="39.85" x2="59.99" y2="39.85"/>
					<line class="st33" x1="59.27" y1="39.85" x2="56.74" y2="39.85"/>
					<line class="st30" x1="56.38" y1="39.85" x2="56.03" y2="39.85"/>
				</g>
			</g>
			<g>
				<polyline class="st30" points="55.64,39.85 55.2,39.85 55.2,39.4 				"/>
			</g>
			<g>
				<g>
					<line class="st30" x1="55.2" y1="38.62" x2="55.2" y2="38.27"/>
					<line class="st32" x1="55.2" y1="37.55" x2="55.2" y2="35.02"/>
					<line class="st30" x1="55.2" y1="34.65" x2="55.2" y2="34.3"/>
				</g>
			</g>
			<g>
				<polyline class="st30" points="55.2,33.92 55.2,33.47 55.64,33.47 				"/>
			</g>
			<g>
				<g>
					<line class="st30" x1="56.42" y1="33.47" x2="56.77" y2="33.47"/>
					<line class="st33" x1="57.5" y1="33.47" x2="60.02" y2="33.47"/>
					<line class="st30" x1="60.38" y1="33.47" x2="60.73" y2="33.47"/>
				</g>
			</g>
			<g>
				<polyline class="st30" points="61.13,33.47 61.58,33.47 61.58,33.92 				"/>
			</g>
			<g>
				<g>
					<line class="st30" x1="61.58" y1="34.7" x2="61.58" y2="35.05"/>
					<line class="st32" x1="61.58" y1="35.77" x2="61.58" y2="38.31"/>
					<line class="st30" x1="61.58" y1="38.67" x2="61.58" y2="39.02"/>
				</g>
			</g>
		</g>
	</g>
	<g>
		<g>
			<g>
				<polyline class="st30" points="55.2,18.82 55.2,18.47 55.55,18.47 				"/>
				<line class="st31" x1="56.18" y1="18.47" x2="60.91" y2="18.47"/>
				<polyline class="st30" points="61.23,18.47 61.58,18.47 61.58,18.82 				"/>
				<line class="st31" x1="61.58" y1="19.45" x2="61.58" y2="24.19"/>
				<polyline class="st30" points="61.58,24.5 61.58,24.85 61.23,24.85 				"/>
				<line class="st31" x1="60.6" y1="24.85" x2="55.86" y2="24.85"/>
				<polyline class="st30" points="55.55,24.85 55.2,24.85 55.2,24.5 				"/>
				<line class="st31" x1="55.2" y1="23.87" x2="55.2" y2="19.13"/>
			</g>
		</g>
		<g>
			<g>
				<polyline class="st30" points="61.58,24.41 61.58,24.86 61.13,24.86 				"/>
			</g>
			<g>
				<g>
					<line class="st30" x1="60.34" y1="24.86" x2="59.99" y2="24.86"/>
					<line class="st33" x1="59.27" y1="24.86" x2="56.74" y2="24.86"/>
					<line class="st30" x1="56.38" y1="24.86" x2="56.03" y2="24.86"/>
				</g>
			</g>
			<g>
				<polyline class="st30" points="55.64,24.86 55.2,24.86 55.2,24.41 				"/>
			</g>
			<g>
				<g>
					<line class="st30" x1="55.2" y1="23.62" x2="55.2" y2="23.27"/>
					<line class="st33" x1="55.2" y1="22.55" x2="55.2" y2="20.03"/>
					<line class="st30" x1="55.2" y1="19.67" x2="55.2" y2="19.32"/>
				</g>
			</g>
			<g>
				<polyline class="st30" points="55.2,18.92 55.2,18.47 55.64,18.47 				"/>
			</g>
			<g>
				<g>
					<line class="st30" x1="56.42" y1="18.47" x2="56.77" y2="18.47"/>
					<line class="st33" x1="57.5" y1="18.47" x2="60.02" y2="18.47"/>
					<line class="st30" x1="60.38" y1="18.47" x2="60.73" y2="18.47"/>
				</g>
			</g>
			<g>
				<polyline class="st30" points="61.13,18.47 61.58,18.47 61.58,18.92 				"/>
			</g>
			<g>
				<g>
					<line class="st30" x1="61.58" y1="19.71" x2="61.58" y2="20.06"/>
					<line class="st33" x1="61.58" y1="20.78" x2="61.58" y2="23.31"/>
					<line class="st30" x1="61.58" y1="23.67" x2="61.58" y2="24.02"/>
				</g>
			</g>
		</g>
	</g>
	<circle class="st34" cx="42.42" cy="29.86" r="3.66"/>
</g>
<g>
	<path class="st43" d="M13.86,57.61h-1.58v-0.56h3.84v0.56h-1.58v4.69h-0.67V57.61z"/>
	<path class="st43" d="M16.99,56.6h0.66v1.55l-0.02,0.8c0.37-0.35,0.76-0.64,1.3-0.64c0.82,0,1.18,0.53,1.18,1.52v2.46h-0.66v-2.38
		c0-0.73-0.22-1.04-0.74-1.04c-0.4,0-0.67,0.21-1.06,0.6v2.81h-0.66V56.6z"/>
	<path class="st43" d="M21.23,57.18c0-0.26,0.2-0.42,0.46-0.42s0.46,0.17,0.46,0.42c0,0.25-0.2,0.42-0.46,0.42
		S21.23,57.43,21.23,57.18z M21.34,58.41H22v3.89h-0.66V58.41z"/>
	<path class="st43" d="M22.88,61.85l0.33-0.44c0.34,0.27,0.68,0.46,1.14,0.46c0.51,0,0.77-0.27,0.77-0.61c0-0.4-0.46-0.58-0.89-0.74
		c-0.55-0.2-1.16-0.46-1.16-1.12c0-0.62,0.5-1.1,1.33-1.1c0.49,0,0.91,0.2,1.21,0.44l-0.31,0.42c-0.26-0.2-0.54-0.34-0.89-0.34
		c-0.49,0-0.71,0.26-0.71,0.56c0,0.37,0.42,0.5,0.86,0.67c0.56,0.21,1.18,0.44,1.18,1.17c0,0.63-0.5,1.16-1.42,1.16
		C23.78,62.39,23.25,62.16,22.88,61.85z"/>
	<path class="st43" d="M27.86,61.94l2.05-3h-1.82v-0.54h2.65v0.35l-2.05,3h2.11v0.54h-2.94V61.94z"/>
	<path class="st43" d="M31.3,60.36c0-1.3,0.85-2.05,1.8-2.05c0.95,0,1.8,0.74,1.8,2.05c0,1.29-0.85,2.03-1.8,2.03
		C32.14,62.39,31.3,61.64,31.3,60.36z M34.22,60.36c0-0.9-0.45-1.5-1.12-1.5c-0.66,0-1.12,0.61-1.12,1.5c0,0.89,0.46,1.49,1.12,1.49
		C33.77,61.84,34.22,61.24,34.22,60.36z"/>
	<path class="st43" d="M35.92,58.41h0.54l0.06,0.56h0.02c0.37-0.37,0.77-0.66,1.3-0.66c0.82,0,1.18,0.53,1.18,1.52v2.46h-0.66v-2.38
		c0-0.73-0.22-1.04-0.74-1.04c-0.4,0-0.67,0.21-1.06,0.6v2.81h-0.66V58.41z"/>
	<path class="st43" d="M40.01,60.36c0-1.27,0.86-2.05,1.74-2.05c0.99,0,1.55,0.71,1.55,1.82c0,0.14-0.01,0.28-0.02,0.38h-2.62
		c0.05,0.82,0.55,1.35,1.29,1.35c0.37,0,0.68-0.12,0.97-0.3l0.23,0.43c-0.34,0.22-0.75,0.4-1.28,0.4
		C40.83,62.39,40.01,61.63,40.01,60.36z M42.73,60.04c0-0.78-0.35-1.21-0.96-1.21c-0.54,0-1.04,0.44-1.12,1.21H42.73z"/>
	<path class="st43" d="M45.75,57.18c0-0.26,0.2-0.42,0.46-0.42s0.46,0.17,0.46,0.42c0,0.25-0.2,0.42-0.46,0.42
		S45.75,57.43,45.75,57.18z M45.86,58.41h0.66v3.89h-0.66V58.41z"/>
	<path class="st43" d="M47.4,61.85l0.33-0.44c0.34,0.27,0.68,0.46,1.14,0.46c0.51,0,0.77-0.27,0.77-0.61c0-0.4-0.46-0.58-0.89-0.74
		c-0.55-0.2-1.16-0.46-1.16-1.12c0-0.62,0.5-1.1,1.33-1.1c0.49,0,0.91,0.2,1.21,0.44l-0.31,0.42c-0.26-0.2-0.54-0.34-0.89-0.34
		c-0.49,0-0.71,0.26-0.71,0.56c0,0.37,0.42,0.5,0.86,0.67c0.56,0.21,1.18,0.44,1.18,1.17c0,0.63-0.5,1.16-1.42,1.16
		C48.3,62.39,47.77,62.16,47.4,61.85z"/>
	<path class="st43" d="M52.5,60.36c0-1.27,0.86-2.05,1.74-2.05c0.99,0,1.55,0.71,1.55,1.82c0,0.14-0.01,0.28-0.02,0.38h-2.62
		c0.05,0.82,0.55,1.35,1.29,1.35c0.37,0,0.68-0.12,0.97-0.3l0.23,0.43c-0.34,0.22-0.75,0.4-1.28,0.4
		C53.32,62.39,52.5,61.63,52.5,60.36z M55.21,60.04c0-0.78-0.35-1.21-0.96-1.21c-0.54,0-1.04,0.44-1.12,1.21H55.21z"/>
	<path class="st43" d="M56.75,58.41h0.54l0.06,0.56h0.02c0.34-0.37,0.74-0.66,1.21-0.66c0.59,0,0.91,0.28,1.07,0.74
		c0.41-0.44,0.81-0.74,1.28-0.74c0.8,0,1.18,0.53,1.18,1.52v2.46h-0.66v-2.38c0-0.73-0.23-1.04-0.72-1.04c-0.3,0-0.62,0.2-0.98,0.6
		v2.81h-0.66v-2.38c0-0.73-0.23-1.04-0.73-1.04c-0.29,0-0.62,0.2-0.98,0.6v2.81h-0.66V58.41z"/>
	<path class="st43" d="M63.38,58.41h0.54l0.06,0.45h0.02c0.35-0.3,0.78-0.54,1.24-0.54c1,0,1.54,0.78,1.54,1.98
		c0,1.32-0.79,2.09-1.68,2.09c-0.36,0-0.72-0.17-1.08-0.45l0.02,0.68v1.31h-0.66V58.41z M66.1,60.29c0-0.86-0.29-1.43-1.02-1.43
		c-0.33,0-0.66,0.18-1.04,0.53v2.04c0.35,0.3,0.7,0.41,0.95,0.41C65.63,61.83,66.1,61.25,66.1,60.29z"/>
	<path class="st43" d="M67.8,61.09v-2.15h-0.58v-0.5l0.61-0.04l0.08-1.09h0.55v1.09h1.05v0.54h-1.05v2.16c0,0.48,0.15,0.75,0.6,0.75
		c0.14,0,0.31-0.06,0.44-0.1l0.13,0.5c-0.22,0.07-0.48,0.14-0.72,0.14C68.08,62.39,67.8,61.86,67.8,61.09z"/>
	<path class="st43" d="M70,63.88l0.13-0.52c0.08,0.02,0.2,0.06,0.3,0.06c0.44,0,0.72-0.35,0.88-0.83l0.09-0.29l-1.56-3.89h0.68
		l0.79,2.15c0.12,0.34,0.26,0.74,0.38,1.1h0.03c0.11-0.35,0.22-0.75,0.33-1.1l0.7-2.15h0.64l-1.46,4.21
		c-0.27,0.77-0.67,1.35-1.46,1.35C70.28,63.96,70.13,63.93,70,63.88z"/>
</g>
</svg>
