<svg width="166" height="89" viewBox="0 0 166 89" fill="none" xmlns="http://www.w3.org/2000/svg">
<rect width="166" height="28" fill="#F2F2F2"/>
<rect y="61" width="166" height="28" fill="#F2F2F2"/>
<rect x="9" y="33" width="104" height="23" fill="#4CAF50"/>
<path d="M18.3306 50H19.6586V39.504H18.3306V50ZM22.4058 50H23.7178V44.368C24.5018 43.584 25.0458 43.168 25.8458 43.168C26.8698 43.168 27.3178 43.792 27.3178 45.248V50H28.6298V45.072C28.6298 43.088 27.8938 42.032 26.2618 42.032C25.1898 42.032 24.3898 42.608 23.6538 43.344H23.6058L23.4938 42.224H22.4058V50ZM32.4358 49.296C33.1558 49.856 33.8758 50.192 34.5958 50.192C36.3718 50.192 37.9558 48.64 37.9558 46C37.9558 43.584 36.8838 42.032 34.8838 42.032C33.9718 42.032 33.1078 42.528 32.4038 43.12H32.3558L32.2438 42.224H31.1558V53.28H32.4678V50.656L32.4358 49.296ZM32.4678 48.272V44.192C33.2358 43.504 33.8918 43.136 34.5477 43.136C36.0198 43.136 36.5958 44.288 36.5958 46C36.5958 47.92 35.6518 49.088 34.3718 49.088C33.8598 49.088 33.1718 48.864 32.4678 48.272ZM39.9188 47.152C39.9188 49.136 40.6548 50.192 42.3028 50.192C43.3748 50.192 44.1428 49.632 44.8628 48.784H44.9108L45.0228 50H46.1108V42.224H44.7988V47.744C44.0628 48.656 43.5028 49.056 42.7028 49.056C41.6788 49.056 41.2468 48.432 41.2468 46.976V42.224H39.9188V47.152ZM48.9579 47.6C48.9579 49.136 49.5179 50.192 51.1819 50.192C51.6619 50.192 52.1899 50.048 52.6219 49.904L52.3659 48.912C52.1099 49.008 51.7579 49.12 51.4859 49.12C50.5899 49.12 50.2859 48.576 50.2859 47.616V43.296H52.3819V42.224H50.2859V40.048H49.1819L49.0219 42.224L47.8059 42.304V43.296H48.9579V47.6ZM56.5105 49.12C57.2465 49.728 58.3025 50.192 59.4065 50.192C61.2465 50.192 62.2545 49.136 62.2545 47.872C62.2545 46.4 61.0065 45.936 59.8865 45.52C59.0065 45.184 58.1585 44.912 58.1585 44.176C58.1585 43.584 58.6065 43.056 59.5825 43.056C60.2705 43.056 60.8305 43.344 61.3585 43.744L61.9825 42.912C61.3905 42.432 60.5425 42.032 59.5665 42.032C57.8865 42.032 56.8945 42.992 56.8945 44.24C56.8945 45.552 58.1105 46.08 59.2145 46.48C60.0625 46.8 60.9905 47.152 60.9905 47.952C60.9905 48.624 60.4785 49.168 59.4545 49.168C58.5265 49.168 57.8385 48.784 57.1665 48.24L56.5105 49.12ZM63.6936 47.984C63.6936 49.376 64.6696 50.192 65.9816 50.192C66.9416 50.192 67.8056 49.68 68.5576 49.072H68.5896L68.7016 50H69.7896V45.232C69.7896 43.296 68.9896 42.032 67.0856 42.032C65.8376 42.032 64.7496 42.576 64.0296 43.04L64.5576 43.952C65.1656 43.536 65.9656 43.12 66.8776 43.12C68.1416 43.12 68.4776 44.08 68.4776 45.072C65.1656 45.44 63.6936 46.288 63.6936 47.984ZM64.9896 47.888C64.9896 46.896 65.8696 46.256 68.4776 45.936V48.096C67.7256 48.768 67.1016 49.136 66.3496 49.136C65.5816 49.136 64.9896 48.768 64.9896 47.888ZM72.2651 50H73.5771V44.368C74.2971 43.568 74.9531 43.168 75.5291 43.168C76.5211 43.168 76.9851 43.792 76.9851 45.248V50H78.2971V44.368C79.0171 43.568 79.6411 43.168 80.2491 43.168C81.2251 43.168 81.6891 43.792 81.6891 45.248V50H83.0011V45.072C83.0011 43.088 82.2331 42.032 80.6331 42.032C79.6891 42.032 78.8891 42.64 78.0731 43.52C77.7531 42.592 77.1131 42.032 75.9291 42.032C75.0011 42.032 74.1851 42.608 73.5131 43.344H73.4651L73.3531 42.224H72.2651V50ZM86.8108 49.296C87.5308 49.856 88.2508 50.192 88.9708 50.192C90.7468 50.192 92.3308 48.64 92.3308 46C92.3308 43.584 91.2588 42.032 89.2588 42.032C88.3468 42.032 87.4828 42.528 86.7788 43.12H86.7308L86.6188 42.224H85.5308V53.28H86.8428V50.656L86.8108 49.296ZM86.8428 48.272V44.192C87.6108 43.504 88.2668 43.136 88.9227 43.136C90.3948 43.136 90.9708 44.288 90.9708 46C90.9708 47.92 90.0268 49.088 88.7468 49.088C88.2348 49.088 87.5468 48.864 86.8428 48.272ZM94.4058 48.432C94.4058 49.568 94.8058 50.192 95.7978 50.192C96.1498 50.192 96.3738 50.144 96.5498 50.064L96.3738 49.072C96.2298 49.104 96.1658 49.104 96.0858 49.104C95.8938 49.104 95.7178 48.944 95.7178 48.528V38.608H94.4058V48.432ZM97.9079 46.128C97.9079 48.672 99.5559 50.192 101.636 50.192C102.692 50.192 103.524 49.824 104.196 49.392L103.732 48.528C103.156 48.896 102.532 49.136 101.796 49.136C100.308 49.136 99.2999 48.08 99.2039 46.4H104.452C104.484 46.208 104.5 45.952 104.5 45.68C104.5 43.456 103.38 42.032 101.396 42.032C99.6199 42.032 97.9079 43.584 97.9079 46.128ZM99.1879 45.536C99.3479 43.968 100.34 43.072 101.428 43.072C102.644 43.072 103.348 43.952 103.348 45.536H99.1879Z" fill="white"/>
<path d="M19.3306 20H20.6586V9.504H19.3306V20ZM23.4058 20H24.7178V14.368C25.5018 13.584 26.0458 13.168 26.8458 13.168C27.8698 13.168 28.3178 13.792 28.3178 15.248V20H29.6298V15.072C29.6298 13.088 28.8938 12.032 27.2618 12.032C26.1898 12.032 25.3898 12.608 24.6538 13.344H24.6058L24.4938 12.224H23.4058V20ZM33.4358 19.296C34.1558 19.856 34.8758 20.192 35.5958 20.192C37.3718 20.192 38.9558 18.64 38.9558 16C38.9558 13.584 37.8838 12.032 35.8838 12.032C34.9718 12.032 34.1078 12.528 33.4038 13.12H33.3558L33.2438 12.224H32.1558V23.28H33.4678V20.656L33.4358 19.296ZM33.4678 18.272V14.192C34.2358 13.504 34.8918 13.136 35.5477 13.136C37.0198 13.136 37.5958 14.288 37.5958 16C37.5958 17.92 36.6518 19.088 35.3718 19.088C34.8598 19.088 34.1718 18.864 33.4678 18.272ZM40.9188 17.152C40.9188 19.136 41.6548 20.192 43.3028 20.192C44.3748 20.192 45.1428 19.632 45.8628 18.784H45.9108L46.0228 20H47.1108V12.224H45.7988V17.744C45.0628 18.656 44.5028 19.056 43.7028 19.056C42.6788 19.056 42.2468 18.432 42.2468 16.976V12.224H40.9188V17.152ZM49.9579 17.6C49.9579 19.136 50.5179 20.192 52.1819 20.192C52.6619 20.192 53.1899 20.048 53.6219 19.904L53.3659 18.912C53.1099 19.008 52.7579 19.12 52.4859 19.12C51.5899 19.12 51.2859 18.576 51.2859 17.616V13.296H53.3819V12.224H51.2859V10.048H50.1819L50.0219 12.224L48.8059 12.304V13.296H49.9579V17.6ZM57.5105 19.12C58.2465 19.728 59.3025 20.192 60.4065 20.192C62.2465 20.192 63.2545 19.136 63.2545 17.872C63.2545 16.4 62.0065 15.936 60.8865 15.52C60.0065 15.184 59.1585 14.912 59.1585 14.176C59.1585 13.584 59.6065 13.056 60.5825 13.056C61.2705 13.056 61.8305 13.344 62.3585 13.744L62.9825 12.912C62.3905 12.432 61.5425 12.032 60.5665 12.032C58.8865 12.032 57.8945 12.992 57.8945 14.24C57.8945 15.552 59.1105 16.08 60.2145 16.48C61.0625 16.8 61.9905 17.152 61.9905 17.952C61.9905 18.624 61.4785 19.168 60.4545 19.168C59.5265 19.168 58.8385 18.784 58.1665 18.24L57.5105 19.12ZM64.6936 17.984C64.6936 19.376 65.6696 20.192 66.9816 20.192C67.9416 20.192 68.8056 19.68 69.5576 19.072H69.5896L69.7016 20H70.7896V15.232C70.7896 13.296 69.9896 12.032 68.0856 12.032C66.8376 12.032 65.7496 12.576 65.0296 13.04L65.5576 13.952C66.1656 13.536 66.9656 13.12 67.8776 13.12C69.1416 13.12 69.4776 14.08 69.4776 15.072C66.1656 15.44 64.6936 16.288 64.6936 17.984ZM65.9896 17.888C65.9896 16.896 66.8696 16.256 69.4776 15.936V18.096C68.7256 18.768 68.1016 19.136 67.3496 19.136C66.5816 19.136 65.9896 18.768 65.9896 17.888ZM73.2651 20H74.5771V14.368C75.2971 13.568 75.9531 13.168 76.5291 13.168C77.5211 13.168 77.9851 13.792 77.9851 15.248V20H79.2971V14.368C80.0171 13.568 80.6411 13.168 81.2491 13.168C82.2251 13.168 82.6891 13.792 82.6891 15.248V20H84.0011V15.072C84.0011 13.088 83.2331 12.032 81.6331 12.032C80.6891 12.032 79.8891 12.64 79.0731 13.52C78.7531 12.592 78.1131 12.032 76.9291 12.032C76.0011 12.032 75.1851 12.608 74.5131 13.344H74.4651L74.3531 12.224H73.2651V20ZM87.8108 19.296C88.5308 19.856 89.2508 20.192 89.9708 20.192C91.7468 20.192 93.3308 18.64 93.3308 16C93.3308 13.584 92.2588 12.032 90.2588 12.032C89.3468 12.032 88.4828 12.528 87.7788 13.12H87.7308L87.6188 12.224H86.5308V23.28H87.8428V20.656L87.8108 19.296ZM87.8428 18.272V14.192C88.6108 13.504 89.2668 13.136 89.9227 13.136C91.3948 13.136 91.9708 14.288 91.9708 16C91.9708 17.92 91.0268 19.088 89.7468 19.088C89.2348 19.088 88.5468 18.864 87.8428 18.272ZM95.4058 18.432C95.4058 19.568 95.8058 20.192 96.7978 20.192C97.1498 20.192 97.3738 20.144 97.5498 20.064L97.3738 19.072C97.2298 19.104 97.1658 19.104 97.0858 19.104C96.8938 19.104 96.7178 18.944 96.7178 18.528V8.608H95.4058V18.432ZM98.9079 16.128C98.9079 18.672 100.556 20.192 102.636 20.192C103.692 20.192 104.524 19.824 105.196 19.392L104.732 18.528C104.156 18.896 103.532 19.136 102.796 19.136C101.308 19.136 100.3 18.08 100.204 16.4H105.452C105.484 16.208 105.5 15.952 105.5 15.68C105.5 13.456 104.38 12.032 102.396 12.032C100.62 12.032 98.9079 13.584 98.9079 16.128ZM100.188 15.536C100.348 13.968 101.34 13.072 102.428 13.072C103.644 13.072 104.348 13.952 104.348 15.536H100.188Z" fill="#666666"/>
<path d="M18.3306 80H19.6586V69.504H18.3306V80ZM22.4058 80H23.7178V74.368C24.5018 73.584 25.0458 73.168 25.8458 73.168C26.8698 73.168 27.3178 73.792 27.3178 75.248V80H28.6298V75.072C28.6298 73.088 27.8938 72.032 26.2618 72.032C25.1898 72.032 24.3898 72.608 23.6538 73.344H23.6058L23.4938 72.224H22.4058V80ZM32.4358 79.296C33.1558 79.856 33.8758 80.192 34.5958 80.192C36.3718 80.192 37.9558 78.64 37.9558 76C37.9558 73.584 36.8838 72.032 34.8838 72.032C33.9718 72.032 33.1078 72.528 32.4038 73.12H32.3558L32.2438 72.224H31.1558V83.28H32.4678V80.656L32.4358 79.296ZM32.4678 78.272V74.192C33.2358 73.504 33.8918 73.136 34.5477 73.136C36.0198 73.136 36.5958 74.288 36.5958 76C36.5958 77.92 35.6518 79.088 34.3718 79.088C33.8598 79.088 33.1718 78.864 32.4678 78.272ZM39.9188 77.152C39.9188 79.136 40.6548 80.192 42.3028 80.192C43.3748 80.192 44.1428 79.632 44.8628 78.784H44.9108L45.0228 80H46.1108V72.224H44.7988V77.744C44.0628 78.656 43.5028 79.056 42.7028 79.056C41.6788 79.056 41.2468 78.432 41.2468 76.976V72.224H39.9188V77.152ZM48.9579 77.6C48.9579 79.136 49.5179 80.192 51.1819 80.192C51.6619 80.192 52.1899 80.048 52.6219 79.904L52.3659 78.912C52.1099 79.008 51.7579 79.12 51.4859 79.12C50.5899 79.12 50.2859 78.576 50.2859 77.616V73.296H52.3819V72.224H50.2859V70.048H49.1819L49.0219 72.224L47.8059 72.304V73.296H48.9579V77.6ZM56.5105 79.12C57.2465 79.728 58.3025 80.192 59.4065 80.192C61.2465 80.192 62.2545 79.136 62.2545 77.872C62.2545 76.4 61.0065 75.936 59.8865 75.52C59.0065 75.184 58.1585 74.912 58.1585 74.176C58.1585 73.584 58.6065 73.056 59.5825 73.056C60.2705 73.056 60.8305 73.344 61.3585 73.744L61.9825 72.912C61.3905 72.432 60.5425 72.032 59.5665 72.032C57.8865 72.032 56.8945 72.992 56.8945 74.24C56.8945 75.552 58.1105 76.08 59.2145 76.48C60.0625 76.8 60.9905 77.152 60.9905 77.952C60.9905 78.624 60.4785 79.168 59.4545 79.168C58.5265 79.168 57.8385 78.784 57.1665 78.24L56.5105 79.12ZM63.6936 77.984C63.6936 79.376 64.6696 80.192 65.9816 80.192C66.9416 80.192 67.8056 79.68 68.5576 79.072H68.5896L68.7016 80H69.7896V75.232C69.7896 73.296 68.9896 72.032 67.0856 72.032C65.8376 72.032 64.7496 72.576 64.0296 73.04L64.5576 73.952C65.1656 73.536 65.9656 73.12 66.8776 73.12C68.1416 73.12 68.4776 74.08 68.4776 75.072C65.1656 75.44 63.6936 76.288 63.6936 77.984ZM64.9896 77.888C64.9896 76.896 65.8696 76.256 68.4776 75.936V78.096C67.7256 78.768 67.1016 79.136 66.3496 79.136C65.5816 79.136 64.9896 78.768 64.9896 77.888ZM72.2651 80H73.5771V74.368C74.2971 73.568 74.9531 73.168 75.5291 73.168C76.5211 73.168 76.9851 73.792 76.9851 75.248V80H78.2971V74.368C79.0171 73.568 79.6411 73.168 80.2491 73.168C81.2251 73.168 81.6891 73.792 81.6891 75.248V80H83.0011V75.072C83.0011 73.088 82.2331 72.032 80.6331 72.032C79.6891 72.032 78.8891 72.64 78.0731 73.52C77.7531 72.592 77.1131 72.032 75.9291 72.032C75.0011 72.032 74.1851 72.608 73.5131 73.344H73.4651L73.3531 72.224H72.2651V80ZM86.8108 79.296C87.5308 79.856 88.2508 80.192 88.9708 80.192C90.7468 80.192 92.3308 78.64 92.3308 76C92.3308 73.584 91.2588 72.032 89.2588 72.032C88.3468 72.032 87.4828 72.528 86.7788 73.12H86.7308L86.6188 72.224H85.5308V83.28H86.8428V80.656L86.8108 79.296ZM86.8428 78.272V74.192C87.6108 73.504 88.2668 73.136 88.9227 73.136C90.3948 73.136 90.9708 74.288 90.9708 76C90.9708 77.92 90.0268 79.088 88.7468 79.088C88.2348 79.088 87.5468 78.864 86.8428 78.272ZM94.4058 78.432C94.4058 79.568 94.8058 80.192 95.7978 80.192C96.1498 80.192 96.3738 80.144 96.5498 80.064L96.3738 79.072C96.2298 79.104 96.1658 79.104 96.0858 79.104C95.8938 79.104 95.7178 78.944 95.7178 78.528V68.608H94.4058V78.432ZM97.9079 76.128C97.9079 78.672 99.5559 80.192 101.636 80.192C102.692 80.192 103.524 79.824 104.196 79.392L103.732 78.528C103.156 78.896 102.532 79.136 101.796 79.136C100.308 79.136 99.2999 78.08 99.2039 76.4H104.452C104.484 76.208 104.5 75.952 104.5 75.68C104.5 73.456 103.38 72.032 101.396 72.032C99.6199 72.032 97.9079 73.584 97.9079 76.128ZM99.1879 75.536C99.3479 73.968 100.34 73.072 101.428 73.072C102.644 73.072 103.348 73.952 103.348 75.536H99.1879Z" fill="#666666"/>
<path d="M123.104 56.7122H117.802L120.603 63.6222C120.703 63.8593 120.703 64.0964 120.603 64.3335C120.503 64.5706 120.336 64.7399 120.103 64.8416L117.652 65.9594C117.419 66.0271 117.186 66.0102 116.952 65.9085C116.752 65.8408 116.602 65.6884 116.502 65.4513L113.851 58.8969L109.5 63.4189C109.234 63.7238 108.917 63.7915 108.55 63.6222C108.183 63.4528 108 63.1649 108 62.7584V40.9106C108 40.5042 108.183 40.2332 108.55 40.0977C108.95 39.9283 109.267 39.9792 109.5 40.2501L123.754 55.1371C124.021 55.4081 124.071 55.7468 123.904 56.1533C123.77 56.5259 123.504 56.7122 123.104 56.7122Z" fill="#333333"/>
</svg>
